<?xml version="1.0" encoding="utf-8"?>
<!-- Generator: Adobe Illustrator 25.2.0, SVG Export Plug-In . SVG Version: 6.00 Build 0)  -->
<svg version="1.1" xmlns="http://www.w3.org/2000/svg" xmlns:xlink="http://www.w3.org/1999/xlink" x="0px" y="0px"
	 viewBox="0 0 372.2 415.9" style="enable-background:new 0 0 372.2 415.9;" xml:space="preserve">
<style type="text/css">
	.st0{fill:#FFFFFF;}
	.st1{fill:#0378A6;}
	.st2{fill:#04BFAD;}
</style>
<g id="edu-ocean_logo_copy_2">
	<g>
		<path d="M-547.9,156.4h-29.6V105h29.6v8.9h-18.7v11.3h17.4v8.9h-17.4v13.3h18.7V156.4z"/>
		<path d="M-525.6,157.1c-4.6,0-8.2-1.8-10.9-5.4s-4-8.6-4-14.9c0-6.4,1.3-11.5,4-15.1c2.7-3.6,6.4-5.4,11.1-5.4
			c4.9,0,8.7,1.9,11.3,5.8h0.4c-0.5-2.9-0.8-5.5-0.8-7.8v-12.6h10.8v54.7h-8.2l-2.1-5.1h-0.5C-516.8,155.1-520.6,157.1-525.6,157.1z
			 M-521.8,148.5c2.7,0,4.8-0.8,6-2.4c1.3-1.6,2-4.3,2.1-8.1v-1.2c0-4.2-0.7-7.2-2-9.1s-3.4-2.7-6.3-2.7c-2.4,0-4.2,1-5.6,3
			c-1.3,2-2,5-2,8.8s0.7,6.8,2,8.7S-524.3,148.5-521.8,148.5z"/>
		<path d="M-464.6,156.4l-1.4-5h-0.6c-1.1,1.8-2.8,3.2-4.9,4.2s-4.5,1.5-7.2,1.5c-4.6,0-8.1-1.2-10.4-3.7c-2.3-2.5-3.5-6-3.5-10.7
			v-25.6h10.7v23c0,2.8,0.5,5,1.5,6.4c1,1.4,2.6,2.1,4.8,2.1c3,0,5.2-1,6.5-3s2-5.3,2-10v-18.5h10.7v39.3H-464.6z"/>
		<path d="M-448.6,141.5v-8.8h18.9v8.8H-448.6z"/>
		<path d="M-374.5,130.6c0,8.5-2.1,15-6.3,19.6s-10.3,6.9-18.1,6.9s-13.9-2.3-18.1-6.9s-6.3-11.1-6.3-19.7c0-8.6,2.1-15.1,6.3-19.6
			c4.2-4.5,10.3-6.8,18.2-6.8c7.9,0,13.9,2.3,18.1,6.8C-376.5,115.5-374.5,122.1-374.5,130.6z M-412,130.6c0,5.7,1.1,10.1,3.3,13
			c2.2,2.9,5.4,4.4,9.8,4.4c8.7,0,13-5.8,13-17.3c0-11.6-4.3-17.4-13-17.4c-4.3,0-7.6,1.5-9.8,4.4C-410.9,120.5-412,124.9-412,130.6
			z"/>
		<path d="M-348.7,157.1c-12.2,0-18.4-6.7-18.4-20.1c0-6.7,1.7-11.8,5-15.3c3.3-3.5,8.1-5.3,14.3-5.3c4.5,0,8.6,0.9,12.2,2.7
			l-3.2,8.3c-1.7-0.7-3.3-1.2-4.7-1.7c-1.5-0.4-2.9-0.7-4.4-0.7c-5.6,0-8.4,4-8.4,11.9c0,7.7,2.8,11.5,8.4,11.5c2.1,0,4-0.3,5.7-0.8
			c1.8-0.6,3.5-1.4,5.3-2.6v9.2c-1.7,1.1-3.5,1.9-5.3,2.3C-343.8,156.9-346,157.1-348.7,157.1z"/>
		<path d="M-309.8,157.1c-6.3,0-11.3-1.7-14.8-5.2c-3.6-3.5-5.3-8.4-5.3-14.8c0-6.6,1.6-11.7,4.9-15.3c3.3-3.6,7.8-5.4,13.7-5.4
			c5.6,0,9.9,1.6,13,4.7s4.6,7.5,4.6,13.1v5.2h-25.3c0.1,3,1,5.4,2.7,7.1c1.7,1.7,4.1,2.6,7.1,2.6c2.4,0,4.6-0.2,6.7-0.7
			s4.3-1.3,6.6-2.4v8.3c-1.9,0.9-3.9,1.6-6,2.1C-304.2,156.9-306.8,157.1-309.8,157.1z M-311.3,124c-2.3,0-4.1,0.7-5.3,2.2
			c-1.3,1.4-2,3.5-2.2,6.1h15c0-2.6-0.7-4.7-2.1-6.1S-309.1,124-311.3,124z"/>
		<path d="M-260.1,156.4l-2.1-5.3h-0.3c-1.8,2.3-3.7,3.8-5.6,4.7c-1.9,0.9-4.4,1.3-7.5,1.3c-3.8,0-6.7-1.1-8.9-3.2
			c-2.2-2.2-3.3-5.2-3.3-9.2c0-4.2,1.5-7.2,4.4-9.2c2.9-2,7.3-3.1,13.2-3.3l6.8-0.2v-1.7c0-4-2-6-6.1-6c-3.1,0-6.8,0.9-11.1,2.8
			l-3.6-7.2c4.5-2.4,9.5-3.6,15-3.6c5.3,0,9.3,1.1,12.1,3.4c2.8,2.3,4.2,5.8,4.2,10.5v26.2H-260.1z M-263.3,138.2l-4.1,0.1
			c-3.1,0.1-5.4,0.7-7,1.7c-1.5,1-2.3,2.6-2.3,4.7c0,3,1.7,4.5,5.2,4.5c2.5,0,4.5-0.7,6-2.1c1.5-1.4,2.2-3.3,2.2-5.7V138.2z"/>
		<path d="M-205.3,156.4H-216v-23c0-2.8-0.5-5-1.5-6.4c-1-1.4-2.6-2.1-4.8-2.1c-3,0-5.2,1-6.5,3s-2,5.3-2,10v18.5h-10.7v-39.3h8.2
			l1.4,5h0.6c1.2-1.9,2.8-3.3,4.9-4.3c2.1-1,4.5-1.5,7.2-1.5c4.6,0,8,1.2,10.4,3.7c2.4,2.5,3.6,6,3.6,10.7V156.4z"/>
	</g>
	<g>
		<path d="M-783.4,111.3c4.5-1.7,0.3-14.3,4.8-25.2c2-4.8,7.6-10.5,10.8-12.7c-5.4,8.6-9.1,23.4-4.1,20.8c4.3-2.2,5.8-11.4,7.8-14.5
			c0.8,2.1,1.5,6.4,4.2,5.7c1.9-1,0.9-3.4,0.4-8.3c-0.6-5.7,0.7-8.3,2.4-10.3c9.5-10.9,18.4-13.6,19.5-13.8
			c2.2-3.1,7.7-10.4,10.1-12c-2.1-0.1-7,0.5-9.4,1.4c-36.3,13.2-62.2,47.9-62.2,88.8c0,5.9,0.5,11.7,1.6,17.5
			c2.9,3-0.4-25.7,10.9-53.7C-787.8,103.2-786,112.3-783.4,111.3z"/>
		<path d="M-737.6,75c-9.2,5.1-17.2,20.4-18.7,24.1c15.3-2.9,21.2-1.8,34,6.3c0.6-6.2-1.8-23.8-5.7-28.2c0.4-4.7,6.4-9.2,8-10
			c1.4-4.1,4.1-8.3,5.2-8.8c1-0.4,8.4,2,12.9,7.1c0.1,0.1,0.1,0.2,0,0.2c0,0-0.1,0.1-0.2,0c-5.1-2.6-11.1-3.6-11.7-3.3
			c-0.6,0.4-3.5,7.6-1.7,9.6c0.8,0.9,8.2,1.3,9.7,1c2.5,2.1,4.5,4.8,5.8,7.9c2.3-8.4,6.8-12.5,9.5-14.8c5.9-5,14-6.4,14.3-5.3
			c0.4,1.1-5,1.1-11.7,8.5c-7.4,8.2-8.1,14.6-7.7,19.3c4.4,7,14.1,15.6,27.1,18.9c6.2-9.6,12.8-35.3-6.8-54.9
			c-19.8-19.8-38.9-20.6-46.7-16.1c2.4,1.4,3.2,1.7,4.8,2.9C-727.1,44.5-738.4,59.3-737.6,75z"/>
		<path d="M-694.3,223.4c7.7-3.2,14.8-9.3,12.6-11.1c-3.7-3-12.5,6.9-24.2,8.5c-5.1,0.7-12.9-1.3-16.4-3c10.2,0.4,24.8-3.8,20.1-6.9
			c-4-2.6-12.8,0.7-16.4,0.5c1.4-1.7,4.8-4.5,2.8-6.4c-1.9-1.2-3.4,0.9-7.4,3.8c-4.7,3.4-7.5,3.5-10.1,3c-14.2-2.8-21-9.2-21.7-10
			c-3.8-0.4-12.8-1.5-15.5-2.7c1,1.8,4,5.8,5.9,7.5c29.5,24.8,72.6,29.9,107.9,9.4c5.1-2.9,9.9-6.3,14.3-10.2
			C-641.1,201.9-664.4,219.2-694.3,223.4z"/>
		<path d="M-736.1,190.8c9,5.4,26.3,4.7,30.2,4.2c-10.2-11.8-12.1-17.5-11.5-32.6c-5.7,2.6-19.7,13.5-21.5,19
			c-4.3,2-11.1-1-12.6-1.9c-4.3,0.9-9.3,0.6-10.2-0.1c-0.9-0.7-2.5-8.3-0.3-14.7c0-0.1,0.1-0.1,0.2-0.1c0.1,0,0.1,0.1,0.1,0.1
			c0.3,5.7,2.4,11.4,3,11.8c0.6,0.4,8.3-0.8,9.2-3.3c0.4-1.2-3-7.7-4-8.9c0.6-3.3,1.9-6.3,3.9-9c-8.5,2.2-14.2,0.4-17.5-0.8
			c-7.3-2.6-12.5-8.9-11.8-9.7c0.8-0.9,3.5,3.8,13.2,5.9c10.8,2.3,16.7-0.3,20.6-3c3.9-7.3,6.5-20,2.8-32.9
			c-11.4-0.6-37,6.6-44.2,33.4c-7.3,27,1.6,44,9.4,48.5c0-2.8-0.1-3.6,0.2-5.6C-767.7,197-749.3,199.4-736.1,190.8z"/>
		<path d="M-654.3,50.2c-5.1-2.9-10.4-5.4-16-7.3c-4.1,1,22.5,12.5,41.1,36.3c-6.6-5.1-15.4-8.2-15.9-5.4
			c-0.8,4.8,12.2,7.4,19.4,16.7c3.1,4.1,5.3,11.8,5.6,15.7c-4.8-9-15.7-19.5-16-14c-0.3,4.8,7,10.7,8.7,14c-2.2-0.3-6.3-1.9-7,0.8
			c-0.1,2.2,2.4,2.5,7,4.5c5.3,2.4,6.8,4.8,7.7,7.3c4.7,13.7,2.5,22.7,2.2,23.8c1.5,3.5,5.1,11.9,5.4,14.7c1.1-1.8,3.1-6.3,3.5-8.8
			C-601.8,110.4-619,70.6-654.3,50.2z"/>
		<path d="M-636.5,131.6c0.2-10.5-9.1-25.1-11.5-28.3c-5.1,14.7-9.1,19.3-22.4,26.3c5.1,3.6,21.5,10.3,27.2,9.1
			c3.8,2.7,4.7,10.1,4.6,11.9c2.9,3.3,5.2,7.7,5,8.9c-0.1,1.1-5.9,6.3-12.6,7.6c-0.1,0-0.2,0-0.2-0.1c0-0.1,0-0.1,0.1-0.2
			c4.8-3.1,8.7-7.8,8.7-8.5c0-0.7-4.9-6.8-7.5-6.3c-1.2,0.2-5.2,6.5-5.7,7.9c-3.1,1.1-6.4,1.5-9.7,1.1c6.1,6.2,7.5,12.1,8.1,15.6
			c1.4,7.6-1.4,15.3-2.5,15.1c-1.1-0.2,1.5-4.9-1.5-14.4c-3.4-10.5-8.6-14.3-12.9-16.4c-8.2,0.3-20.5,4.4-29.9,14
			c5.2,10.2,24.2,28.7,51,21.6c27-7.2,37.3-23.4,37.3-32.4c-2.5,1.4-3.1,1.9-4.9,2.7C-615.4,155.9-622.5,138.8-636.5,131.6z"/>
	</g>
</g>
<g id="Layer_2">
	<g>
		<path class="st0" d="M-547.9,515.9h-29.6v-51.4h29.6v8.9h-18.7v11.3h17.4v8.9h-17.4v13.3h18.7V515.9z"/>
		<path class="st0" d="M-525.6,516.6c-4.6,0-8.2-1.8-10.9-5.4c-2.6-3.6-4-8.6-4-14.9c0-6.4,1.3-11.5,4-15.1
			c2.7-3.6,6.4-5.4,11.1-5.4c4.9,0,8.7,1.9,11.3,5.8h0.4c-0.5-2.9-0.8-5.5-0.8-7.8v-12.6h10.8v54.7h-8.2l-2.1-5.1h-0.5
			C-516.8,514.6-520.6,516.6-525.6,516.6z M-521.8,508c2.7,0,4.8-0.8,6-2.4c1.3-1.6,2-4.3,2.1-8.1v-1.2c0-4.2-0.7-7.2-2-9.1
			s-3.4-2.7-6.3-2.7c-2.4,0-4.2,1-5.6,3c-1.3,2-2,5-2,8.8s0.7,6.8,2,8.7S-524.3,508-521.8,508z"/>
		<path class="st0" d="M-464.6,515.9l-1.4-5h-0.6c-1.1,1.8-2.8,3.2-4.9,4.2s-4.5,1.5-7.2,1.5c-4.6,0-8.1-1.2-10.4-3.7
			c-2.3-2.5-3.5-6-3.5-10.7v-25.6h10.7v23c0,2.8,0.5,5,1.5,6.4c1,1.4,2.6,2.1,4.8,2.1c3,0,5.2-1,6.5-3s2-5.3,2-10v-18.5h10.7v39.3
			H-464.6z"/>
		<path class="st0" d="M-448.6,501v-8.8h18.9v8.8H-448.6z"/>
		<path class="st0" d="M-374.5,490.1c0,8.5-2.1,15-6.3,19.6c-4.2,4.6-10.3,6.9-18.1,6.9s-13.9-2.3-18.1-6.9
			c-4.2-4.6-6.3-11.1-6.3-19.7c0-8.6,2.1-15.1,6.3-19.6c4.2-4.5,10.3-6.8,18.2-6.8c7.9,0,13.9,2.3,18.1,6.8
			C-376.5,475-374.5,481.6-374.5,490.1z M-412,490.1c0,5.7,1.1,10.1,3.3,13c2.2,2.9,5.4,4.4,9.8,4.4c8.7,0,13-5.8,13-17.3
			c0-11.6-4.3-17.4-13-17.4c-4.3,0-7.6,1.5-9.8,4.4C-410.9,480-412,484.4-412,490.1z"/>
		<path class="st0" d="M-348.7,516.6c-12.2,0-18.4-6.7-18.4-20.1c0-6.7,1.7-11.8,5-15.3c3.3-3.5,8.1-5.3,14.3-5.3
			c4.5,0,8.6,0.9,12.2,2.7l-3.2,8.3c-1.7-0.7-3.3-1.2-4.7-1.7c-1.5-0.4-2.9-0.7-4.4-0.7c-5.6,0-8.4,4-8.4,11.9
			c0,7.7,2.8,11.5,8.4,11.5c2.1,0,4-0.3,5.7-0.8c1.8-0.5,3.5-1.4,5.3-2.6v9.2c-1.7,1.1-3.5,1.9-5.3,2.3
			C-343.8,516.4-346,516.6-348.7,516.6z"/>
		<path class="st0" d="M-309.8,516.6c-6.3,0-11.3-1.7-14.8-5.2c-3.6-3.5-5.3-8.4-5.3-14.8c0-6.6,1.6-11.7,4.9-15.3
			c3.3-3.6,7.8-5.4,13.7-5.4c5.6,0,9.9,1.6,13,4.7s4.6,7.5,4.6,13.1v5.2h-25.3c0.1,3,1,5.4,2.7,7.1c1.7,1.7,4.1,2.6,7.1,2.6
			c2.4,0,4.6-0.2,6.7-0.7s4.3-1.3,6.6-2.4v8.3c-1.9,0.9-3.9,1.6-6,2.1C-304.2,516.3-306.8,516.6-309.8,516.6z M-311.3,483.5
			c-2.3,0-4.1,0.7-5.3,2.2c-1.3,1.4-2,3.5-2.2,6.1h15c0-2.6-0.7-4.7-2.1-6.1S-309.1,483.5-311.3,483.5z"/>
		<path class="st0" d="M-260.1,515.9l-2.1-5.3h-0.3c-1.8,2.3-3.7,3.8-5.6,4.7c-1.9,0.9-4.4,1.3-7.5,1.3c-3.8,0-6.7-1.1-8.9-3.2
			c-2.2-2.2-3.3-5.2-3.3-9.2c0-4.2,1.5-7.2,4.4-9.2c2.9-2,7.3-3.1,13.2-3.3l6.8-0.2v-1.7c0-4-2-6-6.1-6c-3.1,0-6.8,0.9-11.1,2.8
			l-3.6-7.2c4.5-2.4,9.5-3.6,15-3.6c5.3,0,9.3,1.1,12.1,3.4c2.8,2.3,4.2,5.8,4.2,10.5v26.2H-260.1z M-263.3,497.7l-4.1,0.1
			c-3.1,0.1-5.4,0.7-7,1.7c-1.5,1-2.3,2.6-2.3,4.7c0,3,1.7,4.5,5.2,4.5c2.5,0,4.5-0.7,6-2.1c1.5-1.4,2.2-3.3,2.2-5.7V497.7z"/>
		<path class="st0" d="M-205.3,515.9H-216v-23c0-2.8-0.5-5-1.5-6.4c-1-1.4-2.6-2.1-4.8-2.1c-3,0-5.2,1-6.5,3s-2,5.3-2,10v18.5h-10.7
			v-39.3h8.2l1.4,5h0.6c1.2-1.9,2.8-3.3,4.9-4.3c2.1-1,4.5-1.5,7.2-1.5c4.6,0,8,1.2,10.4,3.7c2.4,2.5,3.6,6,3.6,10.7V515.9z"/>
	</g>
	<g>
		<path class="st0" d="M-783.4,470.8c4.5-1.7,0.3-14.3,4.8-25.2c2-4.8,7.6-10.5,10.8-12.7c-5.4,8.6-9.1,23.4-4.1,20.8
			c4.3-2.2,5.8-11.4,7.8-14.5c0.8,2.1,1.5,6.4,4.2,5.7c1.9-1,0.9-3.4,0.4-8.3c-0.6-5.7,0.7-8.3,2.4-10.3
			c9.5-10.9,18.4-13.6,19.5-13.8c2.2-3.1,7.7-10.4,10.1-12c-2.1-0.1-7,0.5-9.4,1.4c-36.3,13.2-62.2,47.9-62.2,88.8
			c0,5.9,0.5,11.7,1.6,17.5c2.9,3-0.4-25.7,10.9-53.7C-787.8,462.7-786,471.8-783.4,470.8z"/>
		<path class="st0" d="M-737.6,434.5c-9.2,5.1-17.2,20.4-18.7,24.1c15.3-2.9,21.2-1.8,34,6.3c0.6-6.2-1.8-23.8-5.7-28.2
			c0.4-4.7,6.4-9.2,8-10c1.4-4.1,4.1-8.3,5.2-8.8c1-0.4,8.4,2,12.9,7.1c0.1,0.1,0.1,0.2,0,0.2c0,0-0.1,0.1-0.2,0
			c-5.1-2.6-11.1-3.6-11.7-3.3c-0.6,0.4-3.5,7.6-1.7,9.6c0.8,0.9,8.2,1.3,9.7,1c2.5,2.1,4.5,4.8,5.8,7.9c2.3-8.4,6.8-12.5,9.5-14.8
			c5.9-5,14-6.4,14.3-5.3c0.4,1.1-5,1.1-11.7,8.5c-7.4,8.2-8.1,14.6-7.7,19.3c4.4,7,14.1,15.6,27.1,18.9c6.2-9.6,12.8-35.3-6.8-54.9
			c-19.8-19.8-38.9-20.6-46.7-16.1c2.4,1.4,3.2,1.7,4.8,2.9C-727.1,404-738.4,418.7-737.6,434.5z"/>
		<path class="st0" d="M-694.3,582.9c7.7-3.2,14.8-9.3,12.6-11.1c-3.7-3-12.5,6.9-24.2,8.5c-5.1,0.7-12.9-1.3-16.4-3
			c10.2,0.4,24.8-3.8,20.1-6.9c-4-2.6-12.8,0.7-16.4,0.5c1.4-1.7,4.8-4.5,2.8-6.4c-1.9-1.2-3.4,0.9-7.4,3.8c-4.7,3.4-7.5,3.5-10.1,3
			c-14.2-2.8-21-9.2-21.7-10c-3.8-0.4-12.8-1.5-15.5-2.7c1,1.8,4,5.8,5.9,7.5c29.5,24.8,72.6,29.9,107.9,9.4
			c5.1-2.9,9.9-6.3,14.3-10.2C-641.1,561.4-664.4,578.7-694.3,582.9z"/>
		<path class="st0" d="M-736.1,550.3c9,5.4,26.3,4.7,30.2,4.2c-10.2-11.8-12.1-17.5-11.5-32.6c-5.7,2.6-19.7,13.5-21.5,19
			c-4.3,2-11.1-1-12.6-1.9c-4.3,0.9-9.3,0.6-10.2-0.1c-0.9-0.7-2.5-8.3-0.3-14.7c0-0.1,0.1-0.1,0.2-0.1c0.1,0,0.1,0.1,0.1,0.1
			c0.3,5.7,2.4,11.4,3,11.8c0.6,0.4,8.3-0.8,9.2-3.3c0.4-1.2-3-7.7-4-8.9c0.6-3.3,1.9-6.3,3.9-9c-8.5,2.2-14.2,0.4-17.5-0.8
			c-7.3-2.6-12.5-8.9-11.8-9.7c0.8-0.9,3.5,3.8,13.2,5.9c10.8,2.3,16.7-0.3,20.6-3c3.9-7.3,6.5-20,2.8-32.9
			c-11.4-0.6-37,6.6-44.2,33.4c-7.3,27,1.6,44,9.4,48.5c0-2.8-0.1-3.6,0.2-5.6C-767.7,556.5-749.3,558.9-736.1,550.3z"/>
		<path class="st0" d="M-654.3,409.7c-5.1-2.9-10.4-5.4-16-7.3c-4.1,1,22.5,12.5,41.1,36.3c-6.6-5.1-15.4-8.2-15.9-5.4
			c-0.8,4.8,12.2,7.4,19.4,16.7c3.1,4.1,5.3,11.8,5.6,15.7c-4.8-9-15.7-19.5-16-14c-0.3,4.8,7,10.7,8.7,14c-2.2-0.3-6.3-1.9-7,0.8
			c-0.1,2.2,2.4,2.5,7,4.5c5.3,2.4,6.8,4.8,7.7,7.3c4.7,13.7,2.5,22.7,2.2,23.8c1.5,3.5,5.1,11.9,5.4,14.7c1.1-1.8,3.1-6.3,3.5-8.8
			C-601.8,469.9-619,430.1-654.3,409.7z"/>
		<path class="st0" d="M-636.5,491.1c0.2-10.5-9.1-25.1-11.5-28.3c-5.1,14.7-9.1,19.3-22.4,26.3c5.1,3.6,21.5,10.3,27.2,9.1
			c3.8,2.7,4.7,10.1,4.6,11.9c2.9,3.3,5.2,7.7,5,8.9c-0.1,1.1-5.9,6.3-12.6,7.6c-0.1,0-0.2,0-0.2-0.1c0-0.1,0-0.1,0.1-0.2
			c4.8-3.1,8.7-7.8,8.7-8.5c0-0.7-4.9-6.8-7.5-6.3c-1.2,0.2-5.2,6.5-5.7,7.9c-3.1,1.1-6.4,1.5-9.7,1.1c6.1,6.2,7.5,12.1,8.1,15.6
			c1.4,7.6-1.4,15.3-2.5,15.1c-1.1-0.2,1.5-4.9-1.5-14.4c-3.4-10.5-8.6-14.3-12.9-16.4c-8.2,0.3-20.5,4.4-29.9,14
			c5.2,10.2,24.2,28.7,51,21.6c27-7.2,37.3-23.4,37.3-32.4c-2.5,1.4-3.1,1.9-4.9,2.7C-615.4,515.4-622.5,498.3-636.5,491.1z"/>
	</g>
</g>
<g id="Layer_4">
	<g>
		<path class="st1" d="M-547.9,883.5h-29.6v-51.4h29.6v8.9h-18.7v11.3h17.4v8.9h-17.4v13.3h18.7V883.5z"/>
		<path class="st1" d="M-525.6,884.2c-4.6,0-8.2-1.8-10.9-5.4s-4-8.6-4-14.9c0-6.4,1.3-11.5,4-15.1c2.7-3.6,6.4-5.4,11.1-5.4
			c4.9,0,8.7,1.9,11.3,5.8h0.4c-0.5-2.9-0.8-5.5-0.8-7.8v-12.6h10.8v54.7h-8.2l-2.1-5.1h-0.5C-516.8,882.3-520.6,884.2-525.6,884.2z
			 M-521.8,875.7c2.7,0,4.8-0.8,6-2.4c1.3-1.6,2-4.3,2.1-8.1V864c0-4.2-0.7-7.2-2-9.1s-3.4-2.7-6.3-2.7c-2.4,0-4.2,1-5.6,3
			c-1.3,2-2,5-2,8.8s0.7,6.8,2,8.7S-524.3,875.7-521.8,875.7z"/>
		<path class="st1" d="M-464.6,883.5l-1.4-5h-0.6c-1.1,1.8-2.8,3.2-4.9,4.2s-4.5,1.5-7.2,1.5c-4.6,0-8.1-1.2-10.4-3.7
			s-3.5-6-3.5-10.7v-25.6h10.7v23c0,2.8,0.5,5,1.5,6.4s2.6,2.1,4.8,2.1c3,0,5.2-1,6.5-3s2-5.3,2-10v-18.5h10.7v39.3H-464.6z"/>
		<path class="st1" d="M-448.6,868.6v-8.8h18.9v8.8H-448.6z"/>
		<path class="st1" d="M-374.5,857.8c0,8.5-2.1,15-6.3,19.6s-10.3,6.9-18.1,6.9s-13.9-2.3-18.1-6.9s-6.3-11.1-6.3-19.7
			s2.1-15.1,6.3-19.6s10.3-6.8,18.2-6.8s13.9,2.3,18.1,6.8S-374.5,849.2-374.5,857.8z M-412,857.8c0,5.7,1.1,10.1,3.3,13
			s5.4,4.4,9.8,4.4c8.7,0,13-5.8,13-17.3c0-11.6-4.3-17.4-13-17.4c-4.3,0-7.6,1.5-9.8,4.4S-412,852-412,857.8z"/>
		<path class="st1" d="M-348.7,884.2c-12.2,0-18.4-6.7-18.4-20.1c0-6.7,1.7-11.8,5-15.3s8.1-5.3,14.3-5.3c4.5,0,8.6,0.9,12.2,2.7
			l-3.2,8.3c-1.7-0.7-3.3-1.2-4.7-1.7s-2.9-0.7-4.4-0.7c-5.6,0-8.4,4-8.4,11.9c0,7.7,2.8,11.5,8.4,11.5c2.1,0,4-0.3,5.7-0.8
			s3.5-1.4,5.3-2.6v9.2c-1.7,1.1-3.5,1.9-5.3,2.3S-346,884.2-348.7,884.2z"/>
		<path class="st1" d="M-309.8,884.2c-6.3,0-11.3-1.7-14.8-5.2s-5.3-8.4-5.3-14.8c0-6.6,1.6-11.7,4.9-15.3s7.8-5.4,13.7-5.4
			c5.6,0,9.9,1.6,13,4.7s4.6,7.5,4.6,13.1v5.2h-25.3c0.1,3,1,5.4,2.7,7.1s4.1,2.6,7.1,2.6c2.4,0,4.6-0.2,6.7-0.7s4.3-1.3,6.6-2.4
			v8.3c-1.9,0.9-3.9,1.6-6,2.1S-306.8,884.2-309.8,884.2z M-311.3,851.1c-2.3,0-4.1,0.7-5.3,2.2s-2,3.5-2.2,6.1h15
			c0-2.6-0.7-4.7-2.1-6.1S-309.1,851.1-311.3,851.1z"/>
		<path class="st1" d="M-260.1,883.5l-2.1-5.3h-0.3c-1.8,2.3-3.7,3.8-5.6,4.7s-4.4,1.3-7.5,1.3c-3.8,0-6.7-1.1-8.9-3.2
			s-3.3-5.2-3.3-9.2c0-4.2,1.5-7.2,4.4-9.2s7.3-3.1,13.2-3.3l6.8-0.2v-1.7c0-4-2-6-6.1-6c-3.1,0-6.8,0.9-11.1,2.8l-3.6-7.2
			c4.5-2.4,9.5-3.6,15-3.6c5.3,0,9.3,1.1,12.1,3.4s4.2,5.8,4.2,10.5v26.2H-260.1z M-263.3,865.3l-4.1,0.1c-3.1,0.1-5.4,0.7-7,1.7
			s-2.3,2.6-2.3,4.7c0,3,1.7,4.5,5.2,4.5c2.5,0,4.5-0.7,6-2.1s2.2-3.3,2.2-5.7V865.3z"/>
		<path class="st1" d="M-205.3,883.5H-216v-23c0-2.8-0.5-5-1.5-6.4s-2.6-2.1-4.8-2.1c-3,0-5.2,1-6.5,3s-2,5.3-2,10v18.5h-10.7v-39.3
			h8.2l1.4,5h0.6c1.2-1.9,2.8-3.3,4.9-4.3s4.5-1.5,7.2-1.5c4.6,0,8,1.2,10.4,3.7s3.6,6,3.6,10.7V883.5z"/>
	</g>
	<g>
		<path class="st2" d="M-783.4,838.5c4.5-1.7,0.3-14.3,4.8-25.2c2-4.8,7.6-10.5,10.8-12.7c-5.4,8.6-9.1,23.4-4.1,20.8
			c4.3-2.2,5.8-11.4,7.8-14.5c0.8,2.1,1.5,6.4,4.2,5.7c1.9-1,0.9-3.4,0.4-8.3c-0.6-5.7,0.7-8.3,2.4-10.3
			c9.5-10.9,18.4-13.6,19.5-13.8c2.2-3.1,7.7-10.4,10.1-12c-2.1-0.1-7,0.5-9.4,1.4c-36.3,13.2-62.2,47.9-62.2,88.8
			c0,5.9,0.5,11.7,1.6,17.5c2.9,3-0.4-25.7,10.9-53.7C-787.8,830.3-786,839.5-783.4,838.5z"/>
		<path class="st1" d="M-737.6,802.2c-9.2,5.1-17.2,20.4-18.7,24.1c15.3-2.9,21.2-1.8,34,6.3c0.6-6.2-1.8-23.8-5.7-28.2
			c0.4-4.7,6.4-9.2,8-10c1.4-4.1,4.1-8.3,5.2-8.8c1-0.4,8.4,2,12.9,7.1c0.1,0.1,0.1,0.2,0,0.2c0,0-0.1,0.1-0.2,0
			c-5.1-2.6-11.1-3.6-11.7-3.3c-0.6,0.4-3.5,7.6-1.7,9.6c0.8,0.9,8.2,1.3,9.7,1c2.5,2.1,4.5,4.8,5.8,7.9c2.3-8.4,6.8-12.5,9.5-14.8
			c5.9-5,14-6.4,14.3-5.3c0.4,1.1-5,1.1-11.7,8.5c-7.4,8.2-8.1,14.6-7.7,19.3c4.4,7,14.1,15.6,27.1,18.9c6.2-9.6,12.8-35.3-6.8-54.9
			c-19.8-19.8-38.9-20.6-46.7-16.1c2.4,1.4,3.2,1.7,4.8,2.9C-727.1,771.7-738.4,786.4-737.6,802.2z"/>
		<path class="st2" d="M-694.3,950.5c7.7-3.2,14.8-9.3,12.6-11.1c-3.7-3-12.5,6.9-24.2,8.5c-5.1,0.7-12.9-1.3-16.4-3
			c10.2,0.4,24.8-3.8,20.1-6.9c-4-2.6-12.8,0.7-16.4,0.5c1.4-1.7,4.8-4.5,2.8-6.4c-1.9-1.2-3.4,0.9-7.4,3.8c-4.7,3.4-7.5,3.5-10.1,3
			c-14.2-2.8-21-9.2-21.7-10c-3.8-0.4-12.8-1.5-15.5-2.7c1,1.8,4,5.8,5.9,7.5c29.5,24.8,72.6,29.9,107.9,9.4
			c5.1-2.9,9.9-6.3,14.3-10.2C-641.1,929.1-664.4,946.3-694.3,950.5z"/>
		<path class="st1" d="M-736.1,918c9,5.4,26.3,4.7,30.2,4.2c-10.2-11.8-12.1-17.5-11.5-32.6c-5.7,2.6-19.7,13.5-21.5,19
			c-4.3,2-11.1-1-12.6-1.9c-4.3,0.9-9.3,0.6-10.2-0.1c-0.9-0.7-2.5-8.3-0.3-14.7c0-0.1,0.1-0.1,0.2-0.1c0.1,0,0.1,0.1,0.1,0.1
			c0.3,5.7,2.4,11.4,3,11.8c0.6,0.4,8.3-0.8,9.2-3.3c0.4-1.2-3-7.7-4-8.9c0.6-3.3,1.9-6.3,3.9-9c-8.5,2.2-14.2,0.4-17.5-0.8
			c-7.3-2.6-12.5-8.9-11.8-9.7c0.8-0.9,3.5,3.8,13.2,5.9c10.8,2.3,16.7-0.3,20.6-3c3.9-7.3,6.5-20,2.8-32.9
			c-11.4-0.6-37,6.6-44.2,33.4c-7.3,27,1.6,44,9.4,48.5c0-2.8-0.1-3.6,0.2-5.6C-767.7,924.1-749.3,926.5-736.1,918z"/>
		<path class="st2" d="M-654.3,777.4c-5.1-2.9-10.4-5.4-16-7.3c-4.1,1,22.5,12.5,41.1,36.3c-6.6-5.1-15.4-8.2-15.9-5.4
			c-0.8,4.8,12.2,7.4,19.4,16.7c3.1,4.1,5.3,11.8,5.6,15.7c-4.8-9-15.7-19.5-16-14c-0.3,4.8,7,10.7,8.7,14c-2.2-0.3-6.3-1.9-7,0.8
			c-0.1,2.2,2.4,2.5,7,4.5c5.3,2.4,6.8,4.8,7.7,7.3c4.7,13.7,2.5,22.7,2.2,23.8c1.5,3.5,5.1,11.9,5.4,14.7c1.1-1.8,3.1-6.3,3.5-8.8
			C-601.8,837.6-619,797.8-654.3,777.4z"/>
		<path class="st1" d="M-636.5,858.8c0.2-10.5-9.1-25.1-11.5-28.3c-5.1,14.7-9.1,19.3-22.4,26.3c5.1,3.6,21.5,10.3,27.2,9.1
			c3.8,2.7,4.7,10.1,4.6,11.9c2.9,3.3,5.2,7.7,5,8.9c-0.1,1.1-5.9,6.3-12.6,7.6c-0.1,0-0.2,0-0.2-0.1c0-0.1,0-0.1,0.1-0.2
			c4.8-3.1,8.7-7.8,8.7-8.5c0-0.7-4.9-6.8-7.5-6.3c-1.2,0.2-5.2,6.5-5.7,7.9c-3.1,1.1-6.4,1.5-9.7,1.1c6.1,6.2,7.5,12.1,8.1,15.6
			c1.4,7.6-1.4,15.3-2.5,15.1c-1.1-0.2,1.5-4.9-1.5-14.4c-3.4-10.5-8.6-14.3-12.9-16.4c-8.2,0.3-20.5,4.4-29.9,14
			c5.2,10.2,24.2,28.7,51,21.6c27-7.2,37.3-23.4,37.3-32.4c-2.5,1.4-3.1,1.9-4.9,2.7C-615.4,883.1-622.5,865.9-636.5,858.8z"/>
	</g>
</g>
<g id="Layer_5">
	<g>
		<path d="M54.4,127.3c7.4-2.8,0.5-23.6,7.9-41.6c3.2-7.9,12.5-17.4,17.8-21c-8.9,14.2-15,38.6-6.8,34.5c7.1-3.6,9.6-18.8,12.8-23.9
			c1.3,3.4,2.5,10.6,6.9,9.4c3.2-1.7,1.5-5.5,0.7-13.8c-0.9-9.5,1.2-13.7,4-17c15.8-18,30.4-22.4,32.2-22.9
			c3.7-5,12.7-17.1,16.6-19.9c-3.4-0.1-11.6,0.8-15.5,2.2C71.1,35.1,28.3,92.6,28.3,160c0,9.7,0.9,19.4,2.7,28.9
			c4.8,5-0.7-42.5,18-88.8C47.1,113.8,50,128.9,54.4,127.3z"/>
		<path d="M130,67.3c-15.1,8.4-28.4,33.8-30.9,39.8c25.3-4.8,35.1-2.9,56.1,10.4c1-10.3-3-39.3-9.4-46.6
			c0.7-7.7,10.6-15.1,13.2-16.5c2.3-6.8,6.8-13.8,8.6-14.5c1.7-0.7,13.9,3.3,21.3,11.7c0.1,0.1,0.1,0.3,0,0.3
			c-0.1,0.1-0.2,0.1-0.3,0c-8.4-4.3-18.3-6-19.3-5.5c-1,0.6-5.7,12.6-2.9,15.9c1.3,1.6,13.5,2.1,16.1,1.6c4.2,3.5,7.5,8,9.6,13
			c3.9-14,11.2-20.7,15.6-24.5c9.8-8.3,23.1-10.6,23.7-8.8c0.6,1.8-8.3,1.9-19.3,14c-12.3,13.6-13.4,24.1-12.8,31.9
			c7.3,11.5,23.2,25.8,44.8,31.3c10.3-15.9,21.1-58.3-11.3-90.8c-32.7-32.7-64.3-34-77.2-26.6c4,2.4,5.2,2.9,7.9,4.9
			C147.4,16.9,128.7,41.2,130,67.3z"/>
		<path d="M201.5,312.5c12.8-5.3,24.4-15.3,20.8-18.3c-6.2-5-20.7,11.4-39.9,14c-8.4,1.1-21.3-2.2-27.1-4.9
			c16.8,0.6,40.9-6.3,33.2-11.4c-6.7-4.4-21.1,1.1-27.1,0.9c2.3-2.8,8-7.5,4.7-10.6c-3.1-1.9-5.5,1.5-12.3,6.3
			c-7.8,5.5-12.4,5.8-16.7,5c-23.5-4.7-34.6-15.1-35.9-16.4c-6.2-0.7-21.2-2.4-25.5-4.5c1.6,3.1,6.5,9.6,9.7,12.3
			c48.8,41,120,49.3,178.4,15.6c8.4-4.8,16.3-10.5,23.7-16.8C289.4,277,251,305.5,201.5,312.5z"/>
		<path d="M132.5,258.6c14.8,8.9,43.5,7.7,50,6.9c-16.8-19.5-20.1-28.9-19-53.8c-9.4,4.3-32.5,22.3-35.6,31.4
			c-7,3.3-18.4-1.6-20.9-3.2c-7.1,1.5-15.3,1-16.9-0.2c-1.5-1.1-4.1-13.6-0.5-24.3c0-0.1,0.2-0.2,0.3-0.2c0.1,0,0.2,0.1,0.2,0.2
			c0.5,9.5,3.9,18.9,4.9,19.4c1,0.6,13.8-1.3,15.2-5.5c0.7-1.9-4.9-12.8-6.6-14.7c1-5.4,3.2-10.5,6.5-14.8c-14,3.6-23.5,0.7-29-1.3
			c-12.1-4.3-20.7-14.7-19.5-16.1c1.3-1.4,5.8,6.3,21.8,9.7c17.9,3.9,27.5-0.5,34-4.9c6.4-12.1,10.7-33,4.7-54.4
			c-18.9-1-61.1,10.9-73,55.1c-12,44.7,2.7,72.7,15.6,80.1c0-4.7-0.1-5.9,0.3-9.3C80.2,268.9,110.6,272.8,132.5,258.6z"/>
		<path d="M267.6,26.3c-8.4-4.9-17.2-8.9-26.4-12.1c-6.7,1.6,37.2,20.6,67.9,60c-11-8.4-25.5-13.5-26.2-8.9
			c-1.3,7.9,20.2,12.2,32.1,27.6c5.2,6.7,8.8,19.5,9.3,25.9c-7.9-14.8-25.9-32.3-26.5-23.1c-0.5,8,11.5,17.7,14.3,23.1
			c-3.6-0.6-10.5-3.1-11.5,1.3c-0.2,3.6,4,4.1,11.6,7.5c8.7,3.9,11.2,7.9,12.7,12c7.7,22.6,4.2,37.6,3.7,39.3
			c2.5,5.7,8.5,19.6,8.9,24.4c1.8-2.9,5.1-10.5,5.8-14.6C354.4,125.8,326,60,267.6,26.3z"/>
		<path d="M297,160.8c0.3-17.3-15.1-41.5-19-46.7c-8.5,24.3-15,31.8-37.1,43.4c8.4,6,35.6,17,45,15.1c6.4,4.5,7.8,16.8,7.7,19.7
			c4.8,5.4,8.5,12.8,8.3,14.7c-0.2,1.8-9.8,10.4-20.8,12.6c-0.1,0-0.3,0-0.3-0.2c0-0.1,0-0.2,0.1-0.3c7.9-5.2,14.4-12.9,14.4-14
			c0-1.2-8-11.2-12.3-10.4c-2,0.4-8.6,10.7-9.4,13.1c-5.1,1.9-10.6,2.5-16.1,1.8c10.1,10.3,12.3,20,13.4,25.8
			c2.3,12.6-2.4,25.3-4.2,24.9c-1.9-0.4,2.5-8.2-2.5-23.8c-5.6-17.4-14.2-23.6-21.3-27c-13.6,0.5-33.9,7.2-49.5,23.2
			c8.6,16.8,39.9,47.5,84.2,35.6c44.7-11.9,61.6-38.6,61.6-53.5c-4.1,2.3-5.1,3.1-8.2,4.4C332,201,320.2,172.7,297,160.8z"/>
	</g>
	<g>
		<path d="M29.6,415.2H0v-51.4h29.6v8.9H10.9V384h17.4v8.9H10.9v13.3h18.7V415.2z"/>
		<path d="M51.9,415.9c-4.6,0-8.2-1.8-10.9-5.4s-4-8.6-4-14.9c0-6.4,1.3-11.5,4-15.1s6.4-5.4,11.1-5.4c4.9,0,8.7,1.9,11.3,5.8h0.4
			c-0.5-2.9-0.8-5.5-0.8-7.8v-12.6h10.8v54.7h-8.2l-2.1-5.1h-0.5C60.6,414,56.9,415.9,51.9,415.9z M55.7,407.4c2.7,0,4.8-0.8,6-2.4
			s2-4.3,2.1-8.1v-1.2c0-4.2-0.7-7.2-2-9.1s-3.4-2.7-6.3-2.7c-2.4,0-4.2,1-5.6,3s-2,5-2,8.8s0.7,6.8,2,8.7S53.2,407.4,55.7,407.4z"
			/>
		<path d="M112.9,415.2l-1.4-5h-0.6c-1.1,1.8-2.8,3.2-4.9,4.2s-4.5,1.5-7.2,1.5c-4.6,0-8.1-1.2-10.4-3.7s-3.5-6-3.5-10.7v-25.6h10.7
			v23c0,2.8,0.5,5,1.5,6.4s2.6,2.1,4.8,2.1c3,0,5.2-1,6.5-3s2-5.3,2-10v-18.5h10.7v39.3H112.9z"/>
		<path d="M128.9,400.3v-8.8h18.9v8.8H128.9z"/>
		<path d="M203,389.4c0,8.5-2.1,15-6.3,19.6s-10.3,6.9-18.1,6.9s-13.9-2.3-18.1-6.9s-6.3-11.1-6.3-19.7s2.1-15.1,6.3-19.6
			s10.3-6.8,18.2-6.8s13.9,2.3,18.1,6.8S203,380.9,203,389.4z M165.5,389.4c0,5.7,1.1,10.1,3.3,13s5.4,4.4,9.8,4.4
			c8.7,0,13-5.8,13-17.3c0-11.6-4.3-17.4-13-17.4c-4.3,0-7.6,1.5-9.8,4.4S165.5,383.7,165.5,389.4z"/>
		<path d="M228.8,415.9c-12.2,0-18.4-6.7-18.4-20.1c0-6.7,1.7-11.8,5-15.3s8.1-5.3,14.3-5.3c4.5,0,8.6,0.9,12.2,2.7l-3.2,8.3
			c-1.7-0.7-3.3-1.2-4.7-1.7s-2.9-0.7-4.4-0.7c-5.6,0-8.4,4-8.4,11.9c0,7.7,2.8,11.5,8.4,11.5c2.1,0,4-0.3,5.7-0.8s3.5-1.4,5.3-2.6
			v9.2c-1.7,1.1-3.5,1.9-5.3,2.3S231.5,415.9,228.8,415.9z"/>
		<path d="M267.6,415.9c-6.3,0-11.3-1.7-14.8-5.2s-5.3-8.4-5.3-14.8c0-6.6,1.6-11.7,4.9-15.3s7.8-5.4,13.7-5.4c5.6,0,9.9,1.6,13,4.7
			s4.6,7.5,4.6,13.1v5.2h-25.3c0.1,3,1,5.4,2.7,7.1s4.1,2.6,7.1,2.6c2.4,0,4.6-0.2,6.7-0.7s4.3-1.3,6.6-2.4v8.3
			c-1.9,0.9-3.9,1.6-6,2.1S270.7,415.9,267.6,415.9z M266.1,382.8c-2.3,0-4.1,0.7-5.3,2.2s-2,3.5-2.2,6.1h15c0-2.6-0.7-4.7-2.1-6.1
			S268.4,382.8,266.1,382.8z"/>
		<path d="M317.4,415.2l-2.1-5.3H315c-1.8,2.3-3.7,3.8-5.6,4.7s-4.4,1.3-7.5,1.3c-3.8,0-6.7-1.1-8.9-3.2s-3.3-5.2-3.3-9.2
			c0-4.2,1.5-7.2,4.4-9.2s7.3-3.1,13.2-3.3l6.8-0.2V389c0-4-2-6-6.1-6c-3.1,0-6.8,0.9-11.1,2.8l-3.6-7.2c4.5-2.4,9.5-3.6,15-3.6
			c5.3,0,9.3,1.1,12.1,3.4s4.2,5.8,4.2,10.5v26.2H317.4z M314.2,397l-4.1,0.1c-3.1,0.1-5.4,0.7-7,1.7s-2.3,2.6-2.3,4.7
			c0,3,1.7,4.5,5.2,4.5c2.5,0,4.5-0.7,6-2.1s2.2-3.3,2.2-5.7V397z"/>
		<path d="M372.2,415.2h-10.7v-23c0-2.8-0.5-5-1.5-6.4s-2.6-2.1-4.8-2.1c-3,0-5.2,1-6.5,3s-2,5.3-2,10v18.5h-10.7v-39.3h8.2l1.4,5
			h0.6c1.2-1.9,2.8-3.3,4.9-4.3s4.5-1.5,7.2-1.5c4.6,0,8,1.2,10.4,3.7s3.6,6,3.6,10.7V415.2z"/>
	</g>
	<g>
		<path class="st0" d="M642.6,127.3c7.4-2.8,0.5-23.6,7.9-41.6c3.2-7.9,12.5-17.4,17.8-21c-8.9,14.2-15,38.6-6.8,34.5
			c7.1-3.6,9.6-18.8,12.8-23.9c1.3,3.4,2.5,10.6,6.9,9.4c3.2-1.7,1.5-5.5,0.7-13.8c-0.9-9.5,1.2-13.7,4-17
			c15.8-18,30.4-22.4,32.2-22.9c3.7-5,12.7-17.1,16.6-19.9c-3.4-0.1-11.6,0.8-15.5,2.2C659.3,35.1,616.5,92.6,616.5,160
			c0,9.7,0.9,19.4,2.7,28.9c4.8,5-0.7-42.5,18-88.8C635.4,113.8,638.2,128.9,642.6,127.3z"/>
		<path class="st0" d="M718.3,67.3c-15.1,8.4-28.4,33.8-30.9,39.8c25.3-4.8,35.1-2.9,56.1,10.4c1-10.3-3-39.3-9.4-46.6
			c0.7-7.7,10.6-15.1,13.2-16.5c2.3-6.8,6.8-13.8,8.6-14.5c1.7-0.7,13.9,3.3,21.3,11.7c0.1,0.1,0.1,0.3,0,0.3
			c-0.1,0.1-0.2,0.1-0.3,0c-8.4-4.3-18.3-6-19.3-5.5c-1,0.6-5.7,12.6-2.9,15.9c1.3,1.6,13.5,2.1,16.1,1.6c4.2,3.5,7.5,8,9.6,13
			c3.9-14,11.2-20.7,15.6-24.5c9.8-8.3,23.1-10.6,23.7-8.8c0.6,1.8-8.3,1.9-19.3,14C788.1,71.4,787,82,787.6,89.8
			c7.3,11.5,23.2,25.8,44.8,31.3c10.3-15.9,21.1-58.3-11.3-90.8C788.5-2.4,756.9-3.7,744,3.7c4,2.4,5.2,2.9,7.9,4.9
			C735.6,16.9,717,41.2,718.3,67.3z"/>
		<path class="st0" d="M789.8,312.5c12.8-5.3,24.4-15.3,20.8-18.3c-6.2-5-20.7,11.4-39.9,14c-8.4,1.1-21.3-2.2-27.1-4.9
			c16.8,0.6,40.9-6.3,33.2-11.4c-6.7-4.4-21.1,1.1-27.1,0.9c2.3-2.8,8-7.5,4.7-10.6c-3.1-1.9-5.5,1.5-12.3,6.3
			c-7.8,5.5-12.4,5.8-16.7,5c-23.5-4.7-34.6-15.1-35.9-16.4c-6.2-0.7-21.2-2.4-25.5-4.5c1.6,3.1,6.5,9.6,9.7,12.3
			c48.8,41,120,49.3,178.4,15.6c8.4-4.8,16.3-10.5,23.7-16.8C877.7,277,839.3,305.5,789.8,312.5z"/>
		<path class="st0" d="M720.8,258.6c14.8,8.9,43.5,7.7,50,6.9c-16.8-19.5-20.1-28.9-19-53.8c-9.4,4.3-32.5,22.3-35.6,31.4
			c-7,3.3-18.4-1.6-20.9-3.2c-7.1,1.5-15.3,1-16.9-0.2c-1.5-1.1-4.1-13.6-0.5-24.3c0-0.1,0.2-0.2,0.3-0.2c0.1,0,0.2,0.1,0.2,0.2
			c0.5,9.5,3.9,18.9,4.9,19.4c1,0.6,13.8-1.3,15.2-5.5c0.7-1.9-4.9-12.8-6.6-14.7c1-5.4,3.2-10.5,6.5-14.8c-14,3.6-23.5,0.7-29-1.3
			c-12.1-4.3-20.7-14.7-19.5-16.1c1.3-1.4,5.8,6.3,21.8,9.7c17.9,3.9,27.5-0.5,34-4.9c6.4-12.1,10.7-33,4.7-54.4
			c-18.9-1-61.1,10.9-73,55.1c-12,44.7,2.7,72.7,15.6,80.1c0-4.7-0.1-5.9,0.3-9.3C668.4,268.9,698.9,272.8,720.8,258.6z"/>
		<path class="st0" d="M855.9,26.3c-8.4-4.9-17.2-8.9-26.4-12.1c-6.7,1.6,37.2,20.6,67.9,60c-11-8.4-25.5-13.5-26.2-8.9
			c-1.3,7.9,20.2,12.2,32.1,27.6c5.2,6.7,8.8,19.5,9.3,25.9c-7.9-14.8-25.9-32.3-26.5-23.1c-0.5,8,11.5,17.7,14.3,23.1
			c-3.6-0.6-10.5-3.1-11.5,1.3c-0.2,3.6,4,4.1,11.6,7.5c8.7,3.9,11.2,7.9,12.7,12c7.7,22.6,4.2,37.6,3.7,39.3
			c2.5,5.7,8.5,19.6,8.9,24.4c1.8-2.9,5.1-10.5,5.8-14.6C942.6,125.8,914.3,60,855.9,26.3z"/>
		<path class="st0" d="M885.3,160.8c0.3-17.3-15.1-41.5-19-46.7c-8.5,24.3-15,31.8-37.1,43.4c8.4,6,35.6,17,45,15.1
			c6.4,4.5,7.8,16.8,7.7,19.7c4.8,5.4,8.5,12.8,8.3,14.7c-0.2,1.8-9.8,10.4-20.8,12.6c-0.1,0-0.3,0-0.3-0.2c0-0.1,0-0.2,0.1-0.3
			c7.9-5.2,14.4-12.9,14.4-14c0-1.2-8-11.2-12.3-10.4c-2,0.4-8.6,10.7-9.4,13.1c-5.1,1.9-10.6,2.5-16.1,1.8
			c10.1,10.3,12.3,20,13.4,25.8c2.3,12.6-2.4,25.3-4.2,24.9c-1.9-0.4,2.5-8.2-2.5-23.8c-5.6-17.4-14.2-23.6-21.3-27
			c-13.6,0.5-33.9,7.2-49.5,23.2c8.6,16.8,39.9,47.5,84.2,35.6c44.7-11.9,61.6-38.6,61.6-53.5c-4.1,2.3-5.1,3.1-8.2,4.4
			C920.3,201,908.5,172.7,885.3,160.8z"/>
	</g>
	<g>
		<path class="st0" d="M617.9,415.2h-29.6v-51.4h29.6v8.9h-18.7V384h17.4v8.9h-17.4v13.3h18.7V415.2z"/>
		<path class="st0" d="M640.2,415.9c-4.6,0-8.2-1.8-10.9-5.4s-4-8.6-4-14.9c0-6.4,1.3-11.5,4-15.1s6.4-5.4,11.1-5.4
			c4.9,0,8.7,1.9,11.3,5.8h0.4c-0.5-2.9-0.8-5.5-0.8-7.8v-12.6h10.8v54.7h-8.2l-2.1-5.1h-0.5C648.9,414,645.2,415.9,640.2,415.9z
			 M643.9,407.4c2.7,0,4.8-0.8,6-2.4s2-4.3,2.1-8.1v-1.2c0-4.2-0.7-7.2-2-9.1s-3.4-2.7-6.3-2.7c-2.4,0-4.2,1-5.6,3s-2,5-2,8.8
			s0.7,6.8,2,8.7S641.5,407.4,643.9,407.4z"/>
		<path class="st0" d="M701.1,415.2l-1.4-5h-0.6c-1.1,1.8-2.8,3.2-4.9,4.2s-4.5,1.5-7.2,1.5c-4.6,0-8.1-1.2-10.4-3.7
			s-3.5-6-3.5-10.7v-25.6h10.7v23c0,2.8,0.5,5,1.5,6.4s2.6,2.1,4.8,2.1c3,0,5.2-1,6.5-3s2-5.3,2-10v-18.5h10.7v39.3H701.1z"/>
		<path class="st0" d="M717.1,400.3v-8.8H736v8.8H717.1z"/>
		<path class="st0" d="M791.3,389.4c0,8.5-2.1,15-6.3,19.6s-10.3,6.9-18.1,6.9s-13.9-2.3-18.1-6.9s-6.3-11.1-6.3-19.7
			s2.1-15.1,6.3-19.6s10.3-6.8,18.2-6.8s13.9,2.3,18.1,6.8S791.3,380.9,791.3,389.4z M753.8,389.4c0,5.7,1.1,10.1,3.3,13
			s5.4,4.4,9.8,4.4c8.7,0,13-5.8,13-17.3c0-11.6-4.3-17.4-13-17.4c-4.3,0-7.6,1.5-9.8,4.4S753.8,383.7,753.8,389.4z"/>
		<path class="st0" d="M817.1,415.9c-12.2,0-18.4-6.7-18.4-20.1c0-6.7,1.7-11.8,5-15.3s8.1-5.3,14.3-5.3c4.5,0,8.6,0.9,12.2,2.7
			l-3.2,8.3c-1.7-0.7-3.3-1.2-4.7-1.7s-2.9-0.7-4.4-0.7c-5.6,0-8.4,4-8.4,11.9c0,7.7,2.8,11.5,8.4,11.5c2.1,0,4-0.3,5.7-0.8
			s3.5-1.4,5.3-2.6v9.2c-1.7,1.1-3.5,1.9-5.3,2.3S819.7,415.9,817.1,415.9z"/>
		<path class="st0" d="M855.9,415.9c-6.3,0-11.3-1.7-14.8-5.2s-5.3-8.4-5.3-14.8c0-6.6,1.6-11.7,4.9-15.3s7.8-5.4,13.7-5.4
			c5.6,0,9.9,1.6,13,4.7s4.6,7.5,4.6,13.1v5.2h-25.3c0.1,3,1,5.4,2.7,7.1s4.1,2.6,7.1,2.6c2.4,0,4.6-0.2,6.7-0.7s4.3-1.3,6.6-2.4
			v8.3c-1.9,0.9-3.9,1.6-6,2.1S859,415.9,855.9,415.9z M854.4,382.8c-2.3,0-4.1,0.7-5.3,2.2s-2,3.5-2.2,6.1h15
			c0-2.6-0.7-4.7-2.1-6.1S856.7,382.8,854.4,382.8z"/>
		<path class="st0" d="M905.6,415.2l-2.1-5.3h-0.3c-1.8,2.3-3.7,3.8-5.6,4.7s-4.4,1.3-7.5,1.3c-3.8,0-6.7-1.1-8.9-3.2
			s-3.3-5.2-3.3-9.2c0-4.2,1.5-7.2,4.4-9.2s7.3-3.1,13.2-3.3l6.8-0.2V389c0-4-2-6-6.1-6c-3.1,0-6.8,0.9-11.1,2.8l-3.6-7.2
			c4.5-2.4,9.5-3.6,15-3.6c5.3,0,9.3,1.1,12.1,3.4s4.2,5.8,4.2,10.5v26.2H905.6z M902.4,397l-4.1,0.1c-3.1,0.1-5.4,0.7-7,1.7
			s-2.3,2.6-2.3,4.7c0,3,1.7,4.5,5.2,4.5c2.5,0,4.5-0.7,6-2.1s2.2-3.3,2.2-5.7V397z"/>
		<path class="st0" d="M960.4,415.2h-10.7v-23c0-2.8-0.5-5-1.5-6.4s-2.6-2.1-4.8-2.1c-3,0-5.2,1-6.5,3s-2,5.3-2,10v18.5h-10.7v-39.3
			h8.2l1.4,5h0.6c1.2-1.9,2.8-3.3,4.9-4.3s4.5-1.5,7.2-1.5c4.6,0,8,1.2,10.4,3.7s3.6,6,3.6,10.7V415.2z"/>
	</g>
	<g>
		<path class="st2" d="M54.4,645.3c7.4-2.8,0.5-23.6,7.9-41.6c3.2-7.9,12.5-17.4,17.8-21c-8.9,14.2-15,38.6-6.8,34.5
			c7.1-3.6,9.6-18.8,12.8-23.9c1.3,3.4,2.5,10.6,6.9,9.4c3.2-1.7,1.5-5.5,0.7-13.8c-0.9-9.5,1.2-13.7,4-17
			c15.8-18,30.4-22.4,32.2-22.9c3.7-5,12.7-17.1,16.6-19.9c-3.4-0.1-11.6,0.8-15.5,2.2C71.1,553.1,28.3,610.6,28.3,678
			c0,9.7,0.9,19.4,2.7,28.9c4.8,5-0.7-42.5,18-88.8C47.1,631.9,50,647,54.4,645.3z"/>
		<path class="st1" d="M130,585.3c-15.1,8.4-28.4,33.8-30.9,39.8c25.3-4.8,35.1-2.9,56.1,10.4c1-10.3-3-39.3-9.4-46.6
			c0.7-7.7,10.6-15.1,13.2-16.5c2.3-6.8,6.8-13.8,8.6-14.5c1.7-0.7,13.9,3.3,21.3,11.7c0.1,0.1,0.1,0.3,0,0.3
			c-0.1,0.1-0.2,0.1-0.3,0c-8.4-4.3-18.3-6-19.3-5.5c-1,0.6-5.7,12.6-2.9,15.9c1.3,1.6,13.5,2.1,16.1,1.6c4.2,3.5,7.5,8,9.6,13
			c3.9-14,11.2-20.7,15.6-24.5c9.8-8.3,23.1-10.6,23.7-8.8c0.6,1.8-8.3,1.9-19.3,14c-12.3,13.6-13.4,24.1-12.8,31.9
			c7.3,11.5,23.2,25.8,44.8,31.3c10.3-15.9,21.1-58.3-11.3-90.8c-32.7-32.7-64.3-34-77.2-26.6c4,2.4,5.2,2.9,7.9,4.9
			C147.4,534.9,128.7,559.3,130,585.3z"/>
		<path class="st2" d="M201.5,830.5c12.8-5.3,24.4-15.3,20.8-18.3c-6.2-5-20.7,11.4-39.9,14c-8.4,1.1-21.3-2.2-27.1-4.9
			c16.8,0.6,40.9-6.3,33.2-11.4c-6.7-4.4-21.1,1.1-27.1,0.9c2.3-2.8,8-7.5,4.7-10.6c-3.1-1.9-5.5,1.5-12.3,6.3
			c-7.8,5.5-12.4,5.8-16.7,5c-23.5-4.7-34.6-15.1-35.9-16.4c-6.2-0.7-21.2-2.4-25.5-4.5c1.6,3.1,6.5,9.6,9.7,12.3
			c48.8,41,120,49.3,178.4,15.6c8.4-4.8,16.3-10.5,23.7-16.8C289.4,795.1,251,823.6,201.5,830.5z"/>
		<path class="st1" d="M132.5,776.7c14.8,8.9,43.5,7.7,50,6.9c-16.8-19.5-20.1-28.9-19-53.8c-9.4,4.3-32.5,22.3-35.6,31.4
			c-7,3.3-18.4-1.6-20.9-3.2c-7.1,1.5-15.3,1-16.9-0.2c-1.5-1.1-4.1-13.6-0.5-24.3c0-0.1,0.2-0.2,0.3-0.2c0.1,0,0.2,0.1,0.2,0.2
			c0.5,9.5,3.9,18.9,4.9,19.4c1,0.6,13.8-1.3,15.2-5.5c0.7-1.9-4.9-12.8-6.6-14.7c1-5.4,3.2-10.5,6.5-14.8c-14,3.6-23.5,0.7-29-1.3
			c-12.1-4.3-20.7-14.7-19.5-16.1c1.3-1.4,5.8,6.3,21.8,9.7c17.9,3.9,27.5-0.5,34-4.9c6.4-12.1,10.7-33,4.7-54.4
			c-18.9-1-61.1,10.9-73,55.1c-12,44.7,2.7,72.7,15.6,80.1c0-4.7-0.1-5.9,0.3-9.3C80.2,786.9,110.6,790.9,132.5,776.7z"/>
		<path class="st2" d="M267.6,544.3c-8.4-4.9-17.2-8.9-26.4-12.1c-6.7,1.6,37.2,20.6,67.9,60c-11-8.4-25.5-13.5-26.2-8.9
			c-1.3,7.9,20.2,12.2,32.1,27.6c5.2,6.7,8.8,19.5,9.3,25.9c-7.9-14.8-25.9-32.3-26.5-23.1c-0.5,8,11.5,17.7,14.3,23.1
			c-3.6-0.6-10.5-3.1-11.5,1.3c-0.2,3.6,4,4.1,11.6,7.5c8.7,3.9,11.2,7.9,12.7,12c7.7,22.6,4.2,37.6,3.7,39.3
			c2.5,5.7,8.5,19.6,8.9,24.4c1.8-2.9,5.1-10.5,5.8-14.6C354.4,643.9,326,578.1,267.6,544.3z"/>
		<path class="st1" d="M297,678.9c0.3-17.3-15.1-41.5-19-46.7c-8.5,24.3-15,31.8-37.1,43.4c8.4,6,35.6,17,45,15.1
			c6.4,4.5,7.8,16.8,7.7,19.7c4.8,5.4,8.5,12.8,8.3,14.7c-0.2,1.8-9.8,10.4-20.8,12.6c-0.1,0-0.3,0-0.3-0.2c0-0.1,0-0.2,0.1-0.3
			c7.9-5.2,14.4-12.9,14.4-14c0-1.2-8-11.2-12.3-10.4c-2,0.4-8.6,10.7-9.4,13.1c-5.1,1.9-10.6,2.5-16.1,1.8
			c10.1,10.3,12.3,20,13.4,25.8c2.3,12.6-2.4,25.3-4.2,24.9c-1.9-0.4,2.5-8.2-2.5-23.8c-5.6-17.4-14.2-23.6-21.3-27
			c-13.6,0.5-33.9,7.2-49.5,23.2c8.6,16.8,39.9,47.5,84.2,35.6c44.7-11.9,61.6-38.6,61.6-53.5c-4.1,2.3-5.1,3.1-8.2,4.4
			C332,719.1,320.2,690.7,297,678.9z"/>
	</g>
	<g>
		<path class="st1" d="M29.6,933.3H0v-51.4h29.6v8.9H10.9v11.3h17.4v8.9H10.9v13.3h18.7V933.3z"/>
		<path class="st1" d="M51.9,934c-4.6,0-8.2-1.8-10.9-5.4s-4-8.6-4-14.9c0-6.4,1.3-11.5,4-15.1c2.7-3.6,6.4-5.4,11.1-5.4
			c4.9,0,8.7,1.9,11.3,5.8h0.4c-0.5-2.9-0.8-5.5-0.8-7.8v-12.6h10.8v54.7h-8.2l-2.1-5.1h-0.5C60.6,932,56.9,934,51.9,934z
			 M55.7,925.4c2.7,0,4.8-0.8,6-2.4c1.3-1.6,2-4.3,2.1-8.1v-1.2c0-4.2-0.7-7.2-2-9.1s-3.4-2.7-6.3-2.7c-2.4,0-4.2,1-5.6,3
			c-1.3,2-2,5-2,8.8s0.7,6.8,2,8.7S53.2,925.4,55.7,925.4z"/>
		<path class="st1" d="M112.9,933.3l-1.4-5h-0.6c-1.1,1.8-2.8,3.2-4.9,4.2s-4.5,1.5-7.2,1.5c-4.6,0-8.1-1.2-10.4-3.7
			c-2.3-2.5-3.5-6-3.5-10.7v-25.6h10.7v23c0,2.8,0.5,5,1.5,6.4c1,1.4,2.6,2.1,4.8,2.1c3,0,5.2-1,6.5-3s2-5.3,2-10v-18.5h10.7v39.3
			H112.9z"/>
		<path class="st1" d="M128.9,918.3v-8.8h18.9v8.8H128.9z"/>
		<path class="st1" d="M203,907.5c0,8.5-2.1,15-6.3,19.6s-10.3,6.9-18.1,6.9s-13.9-2.3-18.1-6.9s-6.3-11.1-6.3-19.7
			c0-8.6,2.1-15.1,6.3-19.6c4.2-4.5,10.3-6.8,18.2-6.8s13.9,2.3,18.1,6.8C200.9,892.4,203,899,203,907.5z M165.5,907.5
			c0,5.7,1.1,10.1,3.3,13c2.2,2.9,5.4,4.4,9.8,4.4c8.7,0,13-5.8,13-17.3c0-11.6-4.3-17.4-13-17.4c-4.3,0-7.6,1.5-9.8,4.4
			S165.5,901.7,165.5,907.5z"/>
		<path class="st1" d="M228.8,934c-12.2,0-18.4-6.7-18.4-20.1c0-6.7,1.7-11.8,5-15.3c3.3-3.5,8.1-5.3,14.3-5.3
			c4.5,0,8.6,0.9,12.2,2.7l-3.2,8.3c-1.7-0.7-3.3-1.2-4.7-1.7c-1.5-0.4-2.9-0.7-4.4-0.7c-5.6,0-8.4,4-8.4,11.9
			c0,7.7,2.8,11.5,8.4,11.5c2.1,0,4-0.3,5.7-0.8c1.8-0.5,3.5-1.4,5.3-2.6v9.2c-1.7,1.1-3.5,1.9-5.3,2.3S231.5,934,228.8,934z"/>
		<path class="st1" d="M267.6,934c-6.3,0-11.3-1.7-14.8-5.2c-3.6-3.5-5.3-8.4-5.3-14.8c0-6.6,1.6-11.7,4.9-15.3
			c3.3-3.6,7.8-5.4,13.7-5.4c5.6,0,9.9,1.6,13,4.7s4.6,7.5,4.6,13.1v5.2h-25.3c0.1,3,1,5.4,2.7,7.1c1.7,1.7,4.1,2.6,7.1,2.6
			c2.4,0,4.6-0.2,6.7-0.7s4.3-1.3,6.6-2.4v8.3c-1.9,0.9-3.9,1.6-6,2.1S270.7,934,267.6,934z M266.1,900.8c-2.3,0-4.1,0.7-5.3,2.2
			s-2,3.5-2.2,6.1h15c0-2.6-0.7-4.7-2.1-6.1S268.4,900.8,266.1,900.8z"/>
		<path class="st1" d="M317.4,933.3l-2.1-5.3H315c-1.8,2.3-3.7,3.8-5.6,4.7S305,934,302,934c-3.8,0-6.7-1.1-8.9-3.2
			c-2.2-2.2-3.3-5.2-3.3-9.2c0-4.2,1.5-7.2,4.4-9.2c2.9-2,7.3-3.1,13.2-3.3l6.8-0.2v-1.7c0-4-2-6-6.1-6c-3.1,0-6.8,0.9-11.1,2.8
			l-3.6-7.2c4.5-2.4,9.5-3.6,15-3.6c5.3,0,9.3,1.1,12.1,3.4c2.8,2.3,4.2,5.8,4.2,10.5v26.2H317.4z M314.2,915l-4.1,0.1
			c-3.1,0.1-5.4,0.7-7,1.7c-1.5,1-2.3,2.6-2.3,4.7c0,3,1.7,4.5,5.2,4.5c2.5,0,4.5-0.7,6-2.1c1.5-1.4,2.2-3.3,2.2-5.7V915z"/>
		<path class="st1" d="M372.2,933.3h-10.7v-23c0-2.8-0.5-5-1.5-6.4c-1-1.4-2.6-2.1-4.8-2.1c-3,0-5.2,1-6.5,3s-2,5.3-2,10v18.5h-10.7
			v-39.3h8.2l1.4,5h0.6c1.2-1.9,2.8-3.3,4.9-4.3c2.1-1,4.5-1.5,7.2-1.5c4.6,0,8,1.2,10.4,3.7c2.4,2.5,3.6,6,3.6,10.7V933.3z"/>
	</g>
</g>
<g id="Layer_6">
</g>
</svg>
