<svg id="edu-ocean_logo_copy" data-name="edu-ocean logo copy" xmlns="http://www.w3.org/2000/svg" viewBox="0 0 964.18833 976.28032"><path d="M308.72343,94.09222c-5.344,1.34372-49.91491,14.80851-97.78724,69.4468-8.66127,10.03513-15.06383,22.72341-12.25533,51.57447,2.43875,25.05258,7.65958,36.766-2.12765,41.87234-13.2766,3.91489-16.93618-18.12765-20.93618-28.42554-9.87234,15.48937-17.36169,61.78724-38.97871,72.68085-24.90991,12.553-6.46808-61.44681,20.59573-104.68085-16.04,11.00782-44.24109,39.85593-54.04255,63.74469-22.383,54.5532-1.27658,117.70212-23.88059,126.30674-13.38138,5.09384-22.07686-40.77481-16.54494-82.4798C5.9149,444.90069,22.59575,589.24111,8.12739,573.95388A476.61053,476.61053,0,0,1,0,486.09222c0-204.90159,130.01341-379.437,312.04487-445.61066,11.99768-4.21913,36.7641-7.22553,47.23172-6.79181C347.36171,42.00707,319.95747,78.773,308.72343,94.09222Z" transform="translate(0.00005 0)"/><path d="M655.95747,367.7943c31.161-48.17019,64.17023-177.19148-34.21277-275.74469C522.50325-7.36354,426.54722-11.313,387.36171,11.36878c12.25531,7.14893,15.8298,8.68085,24,14.80851-49.53192,25.02127-106.21277,99.06384-102.12766,178.21276-45.95743,25.53192-86.29786,102.63829-93.95744,121.02129,76.93617-14.63831,106.55318-8.85108,170.55318,31.65954,3.06384-31.14892-9.19147-119.48935-28.61621-141.42633,2.063-23.50982,32.27578-45.9779,40.10559-50.063,6.89361-20.766,20.68084-41.87235,26.04254-44.17021,5.12088-2.19467,42.12765,9.95744,64.80771,35.57687a.74808.74808,0,0,1-.87586,1.18909c-25.64767-13.0797-55.66467-18.29062-58.57016-16.59575-3.06384,1.78725-17.361,38.219-8.68085,48.25532,4.08512,4.72341,41.10639,6.383,48.766,4.85108a105.2474,105.2474,0,0,1,29.10638,39.57446c11.74469-42.383,33.92615-62.79437,47.48938-74.29786,29.70215-25.19149,70.21277-32.17022,72-26.80852,1.83838,5.51513-25.283,5.77009-58.72339,42.6383-37.36169,41.1915-40.59576,73.1915-38.80853,97.02127C541.91487,307.87942,590.42555,351.11346,655.95747,367.7943Z" transform="translate(0.00005 0)"/><path d="M221.47276,841.335c3.83571,3.95624,37.782,35.82331,109.03632,49.96283,13.0213,2.48334,27.211,1.684,50.79245-15.17383,20.4768-14.6383,28.01046-25.01635,37.32635-19.09356,10.02869,9.5404-7.23092,23.731-14.14914,32.344,18.35034.805,62.19016-15.858,82.43283-2.58386,23.32618,15.29608-49.98047,36.32495-100.95416,34.504,17.553,8.38708,56.63678,18.38592,82.2258,14.92987,58.43594-7.8924,102.57132-57.74549,121.3251-42.47217,11.10212,9.04169-24.27362,39.50653-63.1571,55.56824,150.3349-21.15,266.99695-107.76618,260.992-87.59265a476.61548,476.61548,0,0,1-72.02679,50.96936c-177.45,102.4508-393.60877,77.12353-541.93262-47.43348-9.65271-8.28076-24.63954-28.22589-29.49774-37.508C157.04658,833.91585,202.589,839.26565,221.47276,841.335Z" transform="translate(0.00005 0)"/><path d="M284.88875,403.77044c-57.29714-2.90112-185.53745,33.0227-221.69553,167.50149C26.71963,706.92416,71.2773,791.99923,110.513,814.594c.06351-14.18787-.39706-18.04944.82454-28.18885,46.435,30.38526,138.89818,42.451,205.40059-.66125,45.09,27.03436,132.03632,23.417,151.78623,20.85888-51.14524-59.30951-60.94184-87.85223-57.85862-163.53314-28.50766,12.92108-98.885,67.70471-108.17065,95.49555-21.3916,9.96826-55.95593-4.96271-63.40863-9.701-21.43066,4.413-46.60294,3.026-51.2738-.46839-4.46108-3.33746-12.44043-41.46234-1.59337-73.91357a.74808.74808,0,0,1,1.4677.164c1.49647,28.7514,11.9922,57.35236,14.91273,59.02112,3.0797,1.75976,41.77907-4.07446,46.13075-16.6098,2.048-5.89954-15.02537-38.79065-20.18184-44.65808A105.24765,105.24765,0,0,1,248.268,607.40536c-42.57709,11.02032-71.34461,2.01629-88.08853-3.97809-36.66753-13.12708-62.96662-44.721-59.21685-48.94959,3.857-4.34967,17.63855,19.01068,66.28756,29.53681,54.35373,11.76043,83.68356-1.43878,103.42715-14.90149C290.0222,532.49166,303.20866,468.86321,284.88875,403.77044Z" transform="translate(0.00005 0)"/><path d="M912.22938,543.27486c1.5083-5.29992,12.13294-50.63183-11.24908-119.40966-4.36-12.51847-12.14716-24.40735-38.53717-36.40064-22.91553-10.41428-35.67-11.7496-35.19867-22.77878,3.24792-13.45532,24.16711-5.60333,35.08533-3.91849-8.478-16.29437-44.82843-45.92929-43.45411-70.097,1.58374-27.84909,56.44855,25.12192,80.35846,70.17691-1.51306-19.39493-12.39569-58.24185-28.18322-78.67456-36.053-46.66083-101.29474-59.95663-97.44452-83.83456,2.27929-14.13555,46.35046,1.26829,79.70209,26.91156C759.82454,105.63075,626.48164,47.90658,646.95491,43.02022a476.61181,476.61181,0,0,1,80.15423,36.89234c177.45,102.4508,263.59534,302.31338,229.8877,493.04407-2.345,12.49987-12.12457,35.45141-17.734,44.2998C938.01723,602.7792,919.8791,560.66341,912.22938,543.27486Z" transform="translate(0.00005 0)"/><path d="M501.57936,707.13729c26.13611,51.07135,121.36725,144.16876,255.90826,108.24323,135.715-36.23908,187.11341-117.36463,187.06317-162.64118-12.31884,7.039-15.43273,9.36859-24.82452,13.38037,3.09692-55.40655-32.68542-141.51489-103.273-177.55151.86743-52.56629-45.73846-126.0553-57.8288-141.88019-25.79095,73.94782-45.61132,96.70331-112.69458,131.8736,25.44385,18.22781,108.07654,51.7846,136.78693,45.93078,19.32855,13.54157,23.68011,50.94062,23.303,59.764,14.537,16.353,25.92212,38.84631,25.23126,44.63861-.65979,5.53217-29.68725,31.50488-63.21435,38.33667a.74808.74808,0,0,1-.59186-1.353c24.15118-15.67169,43.67248-39.0617,43.65741-42.42535-.01587-3.547-24.41809-34.14447-37.44989-31.64551-6.13312,1.17609-26.081,32.40772-28.58411,39.807a105.24767,105.24767,0,0,1-48.82568,5.41961c30.83239,31.36268,37.41845,60.77808,40.59918,78.27594,6.96539,38.31855-7.24616,76.89118-12.78314,75.75812-5.69544-1.16546,7.64447-24.78082-7.56415-72.17511-16.992-52.9519-43.08783-71.75268-64.61865-82.11981C610.48848,638.331,548.79133,658.72542,501.57936,707.13729Z" transform="translate(0.00005 0)"/></svg>