<svg id="edu-ocean_logo_copy_2" data-name="edu-ocean logo copy 2" xmlns="http://www.w3.org/2000/svg" viewBox="0 0 593.84513 194.45051"><path d="M251.28263,122.0726H221.68107V70.67416h29.60156v8.92969H232.57951V90.889h17.40234v8.92968H232.57951V113.0726h18.70312Z"/><path d="M273.60685,122.77573a12.76569,12.76569,0,0,1-10.88086-5.37891q-3.95508-5.37891-3.95508-14.90625,0-9.668,4.0254-15.06445a13.07415,13.07415,0,0,1,11.09179-5.39649q7.41724,0,11.32031,5.76563H285.56a43.74191,43.74191,0,0,1-.8086-7.83985V67.36948H295.5092V122.0726h-8.22657l-2.07422-5.09766h-.457Q281.0944,122.77573,273.60685,122.77573Zm3.76172-8.543q4.11329,0,6.0293-2.39063t2.09179-8.12109v-1.16016q0-6.32812-1.95117-9.07031t-6.3457-2.74219a6.29449,6.29449,0,0,0-5.57227,3.041q-1.98631,3.041-1.98632,8.84179t2.0039,8.70118A6.54708,6.54708,0,0,0,277.36857,114.23276Z"/><path d="M334.56779,122.0726l-1.44141-5.02734h-.5625a11.31289,11.31289,0,0,1-4.88672,4.23633,16.687,16.687,0,0,1-7.207,1.49414q-6.92724,0-10.4414-3.709-3.51562-3.709-3.51563-10.66992V82.76791h10.72266v22.957q0,4.25391,1.51172,6.38086a5.49766,5.49766,0,0,0,4.8164,2.127q4.5,0,6.50391-3.00586t2.00391-9.9668V82.76791h10.72265V122.0726Z"/><path d="M350.56388,107.16635V98.37729h18.87891v8.78906Z"/><path d="M424.70841,96.30307q0,12.76171-6.32812,19.61719t-18.14063,6.85547q-11.8125,0-18.14062-6.85547t-6.32813-19.6875q0-12.832,6.34571-19.59961T400.31,69.86557q11.84619,0,18.123,6.82031Q424.70842,83.50694,424.70841,96.30307Zm-37.51171,0q0,8.614,3.26953,12.97266,3.26952,4.35938,9.77343,4.35937,13.043,0,13.043-17.332,0-17.36719-12.97265-17.36719-6.50538,0-9.8086,4.377Q387.1967,87.68978,387.1967,96.30307Z"/><path d="M450.478,122.77573q-18.35157,0-18.35157-20.14454,0-10.01952,4.99219-15.31054,4.99072-5.291,14.30859-5.291a27.28456,27.28456,0,0,1,12.23438,2.67188l-3.16406,8.29687q-2.53125-1.01953-4.71094-1.66992a15.18406,15.18406,0,0,0-4.35938-.65039q-8.36718,0-8.36718,11.88281,0,11.53125,8.36718,11.53125a19.082,19.082,0,0,0,5.73047-.82617,20.65811,20.65811,0,0,0,5.27344-2.584v9.17578a17.26781,17.26781,0,0,1-5.25586,2.28515A29.56815,29.56815,0,0,1,450.478,122.77573Z"/><path d="M489.3256,122.77573q-9.49218,0-14.83594-5.23829-5.34521-5.23827-5.34375-14.83593,0-9.87891,4.93946-15.27539,4.938-5.39649,13.6582-5.39649,8.332,0,12.97266,4.7461T505.35685,99.889v5.20312H480.0092a10.32014,10.32014,0,0,0,2.707,7.13672,9.52478,9.52478,0,0,0,7.10156,2.56641,29.48141,29.48141,0,0,0,6.71484-.73828,33.62142,33.62142,0,0,0,6.60938-2.35547v8.29687a25.20772,25.20772,0,0,1-6.01172,2.0918A37.904,37.904,0,0,1,489.3256,122.77573Zm-1.51172-33.11719a6.79978,6.79978,0,0,0-5.34375,2.16211,10.00671,10.00671,0,0,0-2.21484,6.13476h15.04687a8.943,8.943,0,0,0-2.07421-6.13476A7.0244,7.0244,0,0,0,487.81388,89.65854Z"/><path d="M539.03654,122.0726l-2.07422-5.34375h-.28125a15.8452,15.8452,0,0,1-5.57226,4.72852,18.01114,18.01114,0,0,1-7.47071,1.31836q-5.66161,0-8.91211-3.23438-3.252-3.23437-3.252-9.21094,0-6.25707,4.377-9.22851,4.377-2.9707,13.20117-3.28711l6.82032-.21094V95.88119q0-5.97655-6.11719-5.97656a27.86822,27.86822,0,0,0-11.07422,2.84766l-3.55078-7.24219a31.95025,31.95025,0,0,1,15.04687-3.55078q7.91016,0,12.12891,3.44531,4.21875,3.44606,4.21875,10.47656V122.0726Zm-3.16406-18.21094-4.14844.14063q-4.67578.14063-6.96094,1.6875a5.29853,5.29853,0,0,0-2.28515,4.71094q0,4.53515,5.20312,4.53515a8.24361,8.24361,0,0,0,5.959-2.14453,7.53109,7.53109,0,0,0,2.23242-5.69531Z"/><path d="M593.84513,122.0726H583.12248v-22.957q0-4.25318-1.51172-6.38086a5.50118,5.50118,0,0,0-4.81641-2.127q-4.50146,0-6.5039,3.00586-2.00391,3.00585-2.00391,9.96679V122.0726H557.56388V82.76791h8.19141l1.44141,5.02735h.59765a11.3314,11.3314,0,0,1,4.93946-4.30664,16.82392,16.82392,0,0,1,7.15429-1.459q6.85546,0,10.40625,3.709,3.55078,3.70971,3.55078,10.70507Z"/><path d="M15.79676,77.00333c4.50214-1.71381.29828-14.2915,4.75641-25.15711,1.95221-4.75805,7.56915-10.5039,10.76392-12.69635-5.39044,8.61109-9.0636,23.35-4.10218,20.8498,4.30561-2.16974,5.79731-11.39112,7.76362-14.4762.79669,2.05109,1.52557,6.44141,4.16992,5.66162,1.9494-1.017.90954-3.35.42383-8.3399-.55939-5.7464.71582-8.27362,2.44091-10.27234,9.535-10.88257,18.41236-13.56446,19.47675-13.83209,2.23755-3.05115,7.6958-10.374,10.069-12.03064A34.57888,34.57888,0,0,0,62.1515,8.0629,94.55916,94.55916,0,0,0,1.61878,114.31717C4.5005,117.362,1.17811,88.613,12.50141,60.57541,11.39961,68.882,13.13154,78.01792,15.79676,77.00333Z"/><path d="M61.59168,40.70932c-9.15356,5.08533-17.18835,20.443-18.714,24.10443,15.32379-2.91558,21.22271-1.76294,33.96991,6.30579.61022-6.2041-1.83069-23.79926-5.69965-28.16858.41095-4.68256,6.42853-9.15765,7.988-9.97131,1.373-4.13605,4.11914-8.33991,5.187-8.79761,1.02-.43707,8.39081,1.98328,12.90808,7.08606a.149.149,0,0,1-.17444.23682c-5.1084-2.60517-11.087-3.643-11.66571-3.30542-.61023.356-3.45789,7.61224-1.729,9.6112.81366.9408,8.18737,1.27136,9.71295.96625a20.9628,20.9628,0,0,1,5.7973,7.8822,27.87369,27.87369,0,0,1,9.45868-14.79822c5.91589-5.01751,13.98462-6.40753,14.34058-5.3396.36615,1.09845-5.03577,1.14924-11.69623,8.4925-7.44153,8.20428-8.08563,14.57788-7.72968,19.32415,4.39032,6.98383,14.05243,15.595,27.10474,18.91736,6.20648-9.5943,12.78107-35.29205-6.81433-54.92138C104.06953-1.46664,84.95753-2.25326,77.15272,2.26438a40.96025,40.96025,0,0,1,4.78021,2.94946C72.06739,10.19742,60.778,24.94486,61.59168,40.70932Z"/><path d="M104.836,189.08078c7.74463-3.19909,14.79059-9.2669,12.57928-11.06781-3.73523-3.042-12.52594,6.88745-24.16485,8.45941-5.09674.68836-12.88123-1.30316-16.37732-2.97363,10.15265.36267,24.75348-3.82574,20.10748-6.87237-4.0318-2.64386-12.76361.675-16.41852.51464,1.37793-1.71551,4.81561-4.54187,2.81818-6.44207-1.85553-1.17969-3.356.88733-7.43451,3.80291-4.69684,3.35767-7.52307,3.51685-10.11658,3.02228-14.19208-2.81628-20.95331-9.16339-21.71728-9.95135-3.76117-.41217-12.8321-1.47773-15.45331-2.70465a34.5764,34.5764,0,0,0,5.87518,7.47064,94.55913,94.55913,0,0,0,122.28528-.70423C158.015,167.61649,134.77888,184.86826,104.836,189.08078Z"/><path d="M63.08631,156.5004c8.98078,5.38458,26.29828,4.66412,30.232,4.1546-10.18689-11.813-12.13812-17.498-11.524-32.57172-5.678,2.57355-19.69543,13.48511-21.54486,19.02033-4.26068,1.98541-11.145-.98846-12.62945-1.93219-4.26844.879-9.28211.60272-10.21241-.09332-.88855-.66474-2.47784-8.25824-.31738-14.72168a.149.149,0,0,1,.2923.03265c.29809,5.72656,2.38855,11.42316,2.97027,11.75549.61341.35053,8.32135-.81152,9.18811-3.30822.4079-1.175-2.99273-7.72614-4.01977-8.89478a20.96267,20.96267,0,0,1,3.92761-8.96167,27.874,27.874,0,0,1-17.545-.79236c-7.30329-2.61456-12.54138-8.90728-11.79456-9.74951.76825-.86639,3.51319,3.78644,13.20282,5.883,10.82593,2.34234,16.66767-.28662,20.6001-2.968,3.853-7.29407,6.47943-19.96722,2.83057-32.93207C45.33058,79.84305,19.78828,86.9982,12.5865,113.783c-7.26459,27.0185,1.61017,43.96332,9.42492,48.46363a40.95035,40.95035,0,0,1,.16425-5.61451C31.42433,162.68412,49.84071,165.08731,63.08631,156.5004Z"/><path d="M144.82191,15.91654a94.93122,94.93122,0,0,0-15.96472-7.348c-4.07776.97327,22.48077,12.47046,41.10046,36.29554-6.64282-5.10749-15.42071-8.17554-15.87469-5.36011-.76685,4.75586,12.22766,7.404,19.40851,16.69775,3.14447,4.06964,5.312,11.807,5.6134,15.67-4.76227-8.97382-15.68994-19.5243-16.00537-13.97748-.27375,4.8136,6.96631,10.71612,8.655,13.96155-2.17469-.33558-6.34125-1.89948-6.98816.78045-.09388,2.19678,2.44653,2.46271,7.01068,4.537,5.25622,2.38873,6.80725,4.75671,7.67566,7.25006,4.6571,13.69885,2.54095,22.72785,2.24054,23.78345,1.52362,3.46332,5.13629,11.85174,5.3844,14.73529a34.58034,34.58034,0,0,0,3.53216-8.82343A94.447,94.447,0,0,0,144.82191,15.91654Z"/><path d="M162.617,97.31046c.17273-10.46985-9.11-25.107-11.51806-28.25891-5.1369,14.72851-9.08466,19.26086-22.44592,26.26587,5.06774,3.63055,21.52612,10.3142,27.2445,9.14825,3.84979,2.69714,4.71649,10.14612,4.64136,11.9035,2.89539,3.25708,5.163,7.73719,5.02545,8.89087-.13141,1.10187-5.913,6.275-12.5907,7.63574a.149.149,0,0,1-.11792-.26953c4.81031-3.1214,8.69849-7.78009,8.6955-8.45007-.00318-.70642-4.86347-6.80072-7.45911-6.303-1.22156.23425-5.19464,6.45484-5.69324,7.92859a20.96276,20.96276,0,0,1-9.72485,1.07941,27.87437,27.87437,0,0,1,8.08637,15.59063c1.38733,7.63208-1.44324,15.31476-2.54609,15.08912-1.1344-.23212,1.52259-4.93573-1.50659-14.37549-3.3844-10.54669-8.582-14.29132-12.87042-16.3562-8.24329.31024-20.53186,4.37225-29.9353,14.01471,5.20569,10.17212,24.17334,28.71478,50.97052,21.55932,27.031-7.21789,37.26831-23.3761,37.2583-32.394a40.96391,40.96391,0,0,1-4.94446,2.665C183.80323,121.6387,176.67628,104.48807,162.617,97.31046Z"/></svg>