<svg xmlns="http://www.w3.org/2000/svg" viewBox="0 0 372.16406 415.91312"><defs><style>.cls-1{fill:#fff;}</style></defs><g id="Layer_5" data-name="Layer 5"><path class="cls-1" d="M54.36487,127.25873c7.44041-2.8323.49295-23.6187,7.86063-41.57562,3.2263-7.86335,12.50908-17.35917,17.78887-20.98249-8.90846,14.231-14.97886,38.5892-6.77941,34.45719,7.11561-3.58579,9.58085-18.8254,12.83045-23.92393,1.31664,3.38971,2.52122,10.64532,6.89137,9.35662,3.22166-1.68078,1.50316-5.5364.70044-13.78286-.92447-9.49672,1.183-13.67331,4.034-16.97647,15.75787-17.985,30.429-22.41715,32.188-22.85946,3.69786-5.04245,12.71839-17.14452,16.64038-19.88231a57.14687,57.14687,0,0,0-15.54706,2.23566,156.27216,156.27216,0,0,0-100.03875,175.6c4.76244,5.032-.72827-42.47971,17.98507-88.81575C47.098,113.83709,49.96022,128.93548,54.36487,127.25873Z"/><path class="cls-1" d="M130.04736,67.27783c-15.12754,8.40421-28.40615,33.7849-30.92747,39.83593,25.3247-4.81841,35.0735-2.9135,56.14,10.42119,1.00849-10.25314-3.02547-39.33158-9.41946-46.5525.67915-7.73858,10.624-15.1343,13.20134-16.479,2.26915-6.83539,6.80746-13.78285,8.57226-14.53927,1.68563-.72232,13.867,3.27764,21.33241,11.7107a.24623.24623,0,0,1-.28829.39138c-8.44234-4.3054-18.32277-6.02058-19.27921-5.46267-1.00849.58827-5.71464,12.58029-2.85742,15.88386,1.34469,1.55479,13.53078,2.1011,16.052,1.59685a34.644,34.644,0,0,1,9.58085,13.02644c3.86591-13.9509,11.16721-20.66959,15.63178-24.45612C217.563,44.36249,230.8977,42.0653,231.486,43.8302c.60512,1.81534-8.3223,1.89927-19.32964,14.035C199.85816,71.424,198.79369,81.95721,199.382,89.80109c7.25562,11.54175,23.2236,25.77287,44.79435,31.26358,10.25708-15.85592,21.1225-58.325-11.26163-90.76525C200.24792-2.42383,168.66268-3.72383,155.76414,3.7422a67.69144,67.69144,0,0,1,7.9,4.8744C147.35993,16.85266,128.70268,41.22485,130.04736,67.27783Z"/><path class="cls-1" d="M201.51453,312.48235c12.79908-5.28695,24.44351-15.31486,20.789-18.2911-6.173-5.02742-20.70087,11.38247-39.9358,13.98036-8.42307,1.1376-21.288-2.15366-27.0658-4.91434,16.77867.59936,40.90857-6.32258,33.23042-11.35756-6.66311-4.36935-21.09365,1.11551-27.13389.85053,2.27722-2.83513,7.95847-7.50608,4.65743-10.64644-3.06652-1.94959-5.54629,1.46644-12.28657,6.28486-7.76218,5.549-12.43292,5.81207-16.71905,4.99473-23.45439-4.6543-34.62826-15.14378-35.89084-16.446-6.21586-.68117-21.20682-2.44214-25.53875-4.46981a57.14268,57.14268,0,0,0,9.70956,12.34627A156.27221,156.27221,0,0,0,287.42374,283.65C289.40037,277.00961,250.9994,305.52057,201.51453,312.48235Z"/><path class="cls-1" d="M132.51744,258.63873c14.842,8.89877,43.46158,7.70811,49.96259,6.866-16.83525-19.52261-20.05994-28.91786-19.045-53.8293-9.38376,4.25315-32.54946,22.286-35.60589,31.43374-7.04137,3.28117-18.4187-1.63357-20.87194-3.19321-7.05418,1.45261-15.34.99608-16.87741-.15423-1.46846-1.09857-4.095-13.64789-.52452-24.32963a.24621.24621,0,0,1,.48306.054c.49264,9.46394,3.94741,18.87835,4.90879,19.42759,1.01374.57929,13.75219-1.34116,15.18464-5.46731.6741-1.94193-4.94592-12.76852-6.64324-14.69986a34.64381,34.64381,0,0,1,6.49092-14.81041c-14.01485,3.62746-23.484.66362-28.99553-1.30948-12.06969-4.32093-20.72638-14.72053-19.49214-16.11243,1.26964-1.43183,5.806,6.25762,21.8195,9.72248,17.89135,3.871,27.54563-.47369,34.04453-4.90507,6.36766-12.05446,10.70816-32.99862,4.67791-54.42483-18.86011-.955-61.07231,10.86986-72.97426,55.13546-12.00575,44.65182,2.661,72.65551,15.576,80.09289a67.67627,67.67627,0,0,1,.27144-9.27875C80.1916,268.85818,110.62724,272.8298,132.51744,258.63873Z"/><path class="cls-1" d="M267.59691,26.3043A156.88731,156.88731,0,0,0,241.213,14.16066c-6.73906,1.60846,37.15262,20.60918,67.92425,59.98343-10.97819-8.44083-25.48488-13.51121-26.23515-8.85832C281.63476,73.14549,303.11,77.522,314.97735,92.88113c5.19667,6.72565,8.77884,19.51273,9.27693,25.89683-7.87031-14.83048-25.92982-32.26661-26.45111-23.09973-.4524,7.95515,11.5128,17.70989,14.30354,23.07341-3.594-.55458-10.47979-3.13915-11.5489,1.28981-.15514,3.63048,4.04323,4.07,11.58612,7.498,8.68665,3.94772,11.24994,7.86114,12.6851,11.98174,7.69652,22.63926,4.19928,37.56093,3.70281,39.30546,2.518,5.72362,8.48843,19.58666,8.89847,24.35212a57.14874,57.14874,0,0,0,5.83739-14.58194A156.0869,156.0869,0,0,0,267.59691,26.3043Z"/><path class="cls-1" d="M297.0058,160.8191c.28546-17.30289-15.05552-41.49281-19.03521-46.70179-8.48944,24.34092-15.01366,31.83126-37.095,43.408,8.37516,6,35.57491,17.04566,45.02534,15.11876,6.36232,4.45741,7.79466,16.76788,7.67049,19.6722,4.785,5.38278,8.53262,12.78677,8.30526,14.6934-.21717,1.821-9.772,10.37035-20.80788,12.61913a.24629.24629,0,0,1-.19488-.44544c7.94969-5.15855,14.37546-12.85768,14.37052-13.96492-.00525-1.16746-8.03756-11.23914-12.32722-10.41655-2.01879.38713-8.58487,10.66751-9.40887,13.1031a34.644,34.644,0,0,1-16.07167,1.78387c10.14894,10.32354,12.31682,20.006,13.36384,25.7657,2.29276,12.61307-2.38515,25.30977-4.20775,24.93686-1.87475-.38361,2.51628-8.157-2.48985-23.7575-5.5932-17.42988-14.183-23.6184-21.27017-27.0309-13.62318.51271-33.93176,7.22575-49.47226,23.16126,8.60312,16.81084,39.94981,47.45518,84.23589,35.62979,44.6725-11.92858,61.59108-38.63226,61.57453-53.53567a67.70073,67.70073,0,0,1-8.1714,4.40435C332.019,201.02492,320.2407,172.6811,297.0058,160.8191Z"/><path class="cls-1" d="M29.60156,415.21H0V363.81155H29.60156v8.92969H10.89844V384.0264H28.30078v8.92968H10.89844V406.21H29.60156Z"/><path class="cls-1" d="M51.92578,415.91312a12.76628,12.76628,0,0,1-10.88086-5.37891q-3.95508-5.37891-3.95508-14.90625,0-9.668,4.02539-15.06445A13.07418,13.07418,0,0,1,52.207,375.167q7.418,0,11.32031,5.76563h.35157a43.83554,43.83554,0,0,1-.8086-7.83985V360.50687H73.82812V415.21H65.60156l-2.07422-5.09766h-.457Q59.41406,415.91311,51.92578,415.91312Zm3.76172-8.543q4.11329,0,6.0293-2.39063t2.09179-8.12109v-1.16016q0-6.32812-1.95117-9.07031t-6.3457-2.74219a6.294,6.294,0,0,0-5.57227,3.041q-1.98633,3.041-1.98633,8.84179t2.00391,8.70118A6.54706,6.54706,0,0,0,55.6875,407.37015Z"/><path class="cls-1" d="M112.88672,415.21l-1.44141-5.02734h-.5625a11.31289,11.31289,0,0,1-4.88672,4.23633,16.68393,16.68393,0,0,1-7.207,1.49414q-6.92577,0-10.4414-3.709T84.832,401.53421V375.9053H95.55469v22.957q0,4.25391,1.51172,6.38086a5.5,5.5,0,0,0,4.8164,2.127q4.5,0,6.50391-3.00586t2.0039-9.9668V375.9053h10.72266V415.21Z"/><path class="cls-1" d="M128.88281,400.30374v-8.78906h18.87891v8.78906Z"/><path class="cls-1" d="M203.02734,389.44046q0,12.76172-6.32812,19.61719t-18.14063,6.85547q-11.8125,0-18.14062-6.85547t-6.32813-19.6875q0-12.832,6.34571-19.59961t18.19336-6.76758q11.84765,0,18.123,6.82031T203.02734,389.44046Zm-37.51172,0q0,8.61329,3.26954,12.97266t9.77343,4.35937q13.043,0,13.043-17.332,0-17.36719-12.97265-17.36719-6.50391,0-9.8086,4.377T165.51562,389.44046Z"/><path class="cls-1" d="M228.79688,415.91312q-18.35157,0-18.35157-20.14454,0-10.01952,4.99219-15.31054t14.30859-5.291a27.278,27.278,0,0,1,12.23438,2.67188l-3.16406,8.29687q-2.53125-1.01954-4.71094-1.66992a15.1791,15.1791,0,0,0-4.35938-.65039q-8.36718,0-8.36718,11.88281,0,11.53125,8.36718,11.53125a19.07739,19.07739,0,0,0,5.73047-.82617,20.69045,20.69045,0,0,0,5.27344-2.584v9.17578a17.28167,17.28167,0,0,1-5.25586,2.28515A29.5562,29.5562,0,0,1,228.79688,415.91312Z"/><path class="cls-1" d="M267.64453,415.91312q-9.49218,0-14.83594-5.23829t-5.34375-14.83593q0-9.87891,4.93946-15.27539t13.6582-5.39649q8.332,0,12.97266,4.7461t4.64062,13.11328v5.20312H258.32812a10.32111,10.32111,0,0,0,2.707,7.13672,9.52478,9.52478,0,0,0,7.10156,2.56641,29.48141,29.48141,0,0,0,6.71484-.73828,33.59941,33.59941,0,0,0,6.60938-2.35547v8.29687a25.17786,25.17786,0,0,1-6.01172,2.0918A37.904,37.904,0,0,1,267.64453,415.91312Zm-1.51172-33.11719a6.80116,6.80116,0,0,0-5.34375,2.16211,10.00671,10.00671,0,0,0-2.21484,6.13476h15.04687a8.93827,8.93827,0,0,0-2.07421-6.13476A7.023,7.023,0,0,0,266.13281,382.79593Z"/><path class="cls-1" d="M317.35547,415.21l-2.07422-5.34375H315a15.83679,15.83679,0,0,1-5.57227,4.72852,18.00792,18.00792,0,0,1-7.4707,1.31836q-5.66016,0-8.91211-3.23438T289.793,403.4678q0-6.25781,4.37695-9.22851t13.20117-3.28711l6.82032-.21094v-1.72266q0-5.97656-6.11719-5.97656A27.876,27.876,0,0,0,297,385.88968l-3.55078-7.24219a31.95306,31.95306,0,0,1,15.04687-3.55078q7.91016,0,12.12891,3.44531t4.21875,10.47656V415.21Zm-3.16406-18.21094-4.14844.14063q-4.67579.14063-6.96094,1.6875a5.30013,5.30013,0,0,0-2.28515,4.71094q0,4.53515,5.20312,4.53515a8.24041,8.24041,0,0,0,5.959-2.14453,7.53253,7.53253,0,0,0,2.23243-5.69531Z"/><path class="cls-1" d="M372.16406,415.21H361.44141V392.253q0-4.25391-1.51172-6.38086a5.5,5.5,0,0,0-4.81641-2.12695q-4.5,0-6.5039,3.00586t-2.00391,9.96679V415.21H335.88281V375.9053h8.19141l1.4414,5.02735h.59766a11.33143,11.33143,0,0,1,4.93945-4.30664,16.81976,16.81976,0,0,1,7.1543-1.459q6.85547,0,10.40625,3.709t3.55078,10.70507Z"/></g></svg>