<svg xmlns="http://www.w3.org/2000/svg" viewBox="0 0 593.84513 193.64192"><defs><style>.cls-1{fill:#fff;}</style></defs><g id="Layer_2" data-name="Layer 2"><path class="cls-1" d="M251.28263,121.2639H221.68107V69.86547h29.60156v8.92968H232.57951V90.08031h17.40234V99.01H232.57951v13.2539h18.70312Z"/><path class="cls-1" d="M273.60685,121.967a12.76569,12.76569,0,0,1-10.88086-5.37891q-3.95508-5.37891-3.95508-14.90625,0-9.668,4.0254-15.06445a13.07415,13.07415,0,0,1,11.09179-5.39649q7.41724,0,11.32031,5.76563H285.56a43.73753,43.73753,0,0,1-.8086-7.83984V66.56078H295.5092V121.2639h-8.22657l-2.07422-5.09765h-.457Q281.0944,121.967,273.60685,121.967Zm3.76172-8.543q4.11329,0,6.0293-2.39063t2.09179-8.12109v-1.16016q0-6.32812-1.95117-9.07031t-6.3457-2.74219a6.29551,6.29551,0,0,0-5.57227,3.041q-1.98631,3.041-1.98632,8.8418t2.0039,8.70117A6.54708,6.54708,0,0,0,277.36857,113.42406Z"/><path class="cls-1" d="M334.56779,121.2639l-1.44141-5.02734h-.5625a11.31289,11.31289,0,0,1-4.88672,4.23633,16.687,16.687,0,0,1-7.207,1.49414q-6.92724,0-10.4414-3.709-3.51562-3.709-3.51563-10.66992V81.95922h10.72266v22.957q0,4.25389,1.51172,6.38086a5.49649,5.49649,0,0,0,4.8164,2.12695q4.5,0,6.50391-3.00586t2.00391-9.9668V81.95922h10.72265V121.2639Z"/><path class="cls-1" d="M350.56388,106.35765V97.56859h18.87891v8.78906Z"/><path class="cls-1" d="M424.70841,95.49437q0,12.76171-6.32812,19.61719T400.23966,121.967q-11.8125,0-18.14062-6.85547t-6.32813-19.6875q0-12.832,6.34571-19.59961T400.31,69.05687q11.84619,0,18.123,6.82031Q424.70842,82.699,424.70841,95.49437Zm-37.51171,0q0,8.61475,3.26953,12.97266,3.26952,4.35938,9.77343,4.35937,13.043,0,13.043-17.332,0-17.36718-12.97265-17.36719-6.50538,0-9.8086,4.377Q387.1967,86.8811,387.1967,95.49437Z"/><path class="cls-1" d="M450.478,121.967q-18.35157,0-18.35157-20.14453,0-10.01954,4.99219-15.31055,4.99072-5.291,14.30859-5.291a27.2911,27.2911,0,0,1,12.23438,2.67188l-3.16406,8.29687q-2.53125-1.01952-4.71094-1.66992a15.18406,15.18406,0,0,0-4.35938-.65039q-8.36718,0-8.36718,11.88281,0,11.53125,8.36718,11.53125a19.082,19.082,0,0,0,5.73047-.82617,20.62587,20.62587,0,0,0,5.27344-2.584v9.17578a17.26809,17.26809,0,0,1-5.25586,2.28516A29.56879,29.56879,0,0,1,450.478,121.967Z"/><path class="cls-1" d="M489.3256,121.967q-9.49218,0-14.83594-5.23828-5.34521-5.23829-5.34375-14.83594,0-9.87891,4.93946-15.27539,4.938-5.39649,13.6582-5.39649,8.332,0,12.97266,4.7461t4.64062,13.11328v5.20312H480.0092a10.31923,10.31923,0,0,0,2.707,7.13672,9.52478,9.52478,0,0,0,7.10156,2.56641,29.48084,29.48084,0,0,0,6.71484-.73828,33.62142,33.62142,0,0,0,6.60938-2.35547v8.29687a25.20772,25.20772,0,0,1-6.01172,2.0918A37.904,37.904,0,0,1,489.3256,121.967Zm-1.51172-33.11719a6.79978,6.79978,0,0,0-5.34375,2.16211,10.00674,10.00674,0,0,0-2.21484,6.13477h15.04687A8.94306,8.94306,0,0,0,493.228,91.012,7.0244,7.0244,0,0,0,487.81388,88.84984Z"/><path class="cls-1" d="M539.03654,121.2639l-2.07422-5.34375h-.28125a15.8452,15.8452,0,0,1-5.57226,4.72852,18.011,18.011,0,0,1-7.47071,1.31836q-5.66161,0-8.91211-3.23438-3.252-3.23437-3.252-9.21093,0-6.25635,4.377-9.22852,4.377-2.9707,13.20117-3.28711l6.82032-.21094V95.0725q0-5.97657-6.11719-5.97657a27.86822,27.86822,0,0,0-11.07422,2.84766l-3.55078-7.24219a31.95037,31.95037,0,0,1,15.04687-3.55078q7.91016,0,12.12891,3.44531,4.21875,3.44679,4.21875,10.47657v26.1914ZM535.87248,103.053l-4.14844.14062q-4.67578.14063-6.96094,1.6875A5.29909,5.29909,0,0,0,522.478,109.592q0,4.53516,5.20312,4.53515a8.24361,8.24361,0,0,0,5.959-2.14453,7.5296,7.5296,0,0,0,2.23242-5.69531Z"/><path class="cls-1" d="M593.84513,121.2639H583.12248v-22.957q0-4.25244-1.51172-6.38086a5.50118,5.50118,0,0,0-4.81641-2.127q-4.50146,0-6.5039,3.00586-2.00391,3.00587-2.00391,9.9668V121.2639H557.56388V81.95922h8.19141l1.44141,5.02734h.59765a11.33146,11.33146,0,0,1,4.93946-4.30664,16.8313,16.8313,0,0,1,7.15429-1.459q6.85546,0,10.40625,3.709,3.55078,3.71045,3.55078,10.70508Z"/><path class="cls-1" d="M15.79676,76.19474c4.50214-1.71381.29828-14.29151,4.75641-25.15711,1.95221-4.75806,7.56915-10.50391,10.76392-12.69635-5.39044,8.61108-9.0636,23.35-4.10218,20.84979C31.52052,57.02133,33.01222,47.8,34.97853,44.71488c.79669,2.05108,1.52557,6.4414,4.16992,5.66162,1.9494-1.017.90954-3.35.42383-8.33991-.55939-5.7464.71582-8.27362,2.44091-10.27234,9.535-10.88256,18.41236-13.56445,19.47675-13.83209,2.23755-3.05115,7.6958-10.374,10.069-12.03064A34.57891,34.57891,0,0,0,62.1515,7.25431,94.55916,94.55916,0,0,0,1.61878,113.50858c2.88172,3.0448-.44067-25.70416,10.88263-53.74176C11.39961,68.0734,13.13154,77.20932,15.79676,76.19474Z"/><path class="cls-1" d="M61.59168,39.90073c-9.15356,5.08533-17.18835,20.443-18.714,24.10443,15.32379-2.91559,21.22271-1.76294,33.96991,6.30579.61022-6.20411-1.83069-23.79926-5.69965-28.16858.41095-4.68256,6.42853-9.15766,7.988-9.97132,1.373-4.136,4.11914-8.3399,5.187-8.7976,1.02-.43708,8.39081,1.98327,12.90808,7.08606a.149.149,0,0,1-.17444.23681c-5.1084-2.60516-11.087-3.643-11.66571-3.30542-.61023.356-3.45789,7.61225-1.729,9.61121.81366.94079,8.18737,1.27136,9.71295.96625a20.9628,20.9628,0,0,1,5.7973,7.8822,27.87369,27.87369,0,0,1,9.45868-14.79822c5.91589-5.01752,13.98462-6.40753,14.34058-5.3396.36615,1.09845-5.03577,1.14923-11.69623,8.49249-7.44153,8.20429-8.08563,14.57788-7.72968,19.32416,4.39032,6.98383,14.05243,15.595,27.10474,18.91736,6.20648-9.5943,12.78107-35.292-6.81433-54.92139C104.06953-2.27524,84.95753-3.06186,77.15272,1.45578a40.96013,40.96013,0,0,1,4.78021,2.94947C72.06739,9.38883,60.778,24.13626,61.59168,39.90073Z"/><path class="cls-1" d="M104.836,188.27219c7.74463-3.1991,14.79059-9.26691,12.57928-11.06781-3.73523-3.042-12.52594,6.88745-24.16485,8.45941-5.09674.68835-12.88123-1.30316-16.37732-2.97363,10.15265.36267,24.75348-3.82575,20.10748-6.87238-4.0318-2.64386-12.76361.675-16.41852.51465,1.37793-1.71551,4.81561-4.54187,2.81818-6.44208-1.85553-1.17968-3.356.88733-7.43451,3.80292-4.69684,3.35767-7.52307,3.51685-10.11658,3.02228-14.19208-2.81629-20.95331-9.16339-21.71728-9.95136-3.76117-.41217-12.8321-1.47772-15.45331-2.70465a34.57616,34.57616,0,0,0,5.87518,7.47064A94.55912,94.55912,0,0,0,156.819,170.826C158.015,166.80789,134.77888,184.05966,104.836,188.27219Z"/><path class="cls-1" d="M63.08631,155.69181c8.98078,5.38458,26.29828,4.66412,30.232,4.1546-10.18689-11.813-12.13812-17.498-11.524-32.57172-5.678,2.57355-19.69543,13.48511-21.54486,19.02033-4.26068,1.98541-11.145-.98847-12.62945-1.93219-4.26844.879-9.28211.60272-10.21241-.09333-.88855-.66473-2.47784-8.25824-.31738-14.72168a.149.149,0,0,1,.2923.03266c.29809,5.72656,2.38855,11.42315,2.97027,11.75549.61341.35053,8.32135-.81152,9.18811-3.30823.4079-1.175-2.99273-7.72613-4.01977-8.89477a20.96267,20.96267,0,0,1,3.92761-8.96167,27.87409,27.87409,0,0,1-17.545-.79236c-7.30329-2.61456-12.54138-8.90729-11.79456-9.74951.76825-.8664,3.51319,3.78644,13.20282,5.883,10.82593,2.34235,16.66767-.28662,20.6001-2.968,3.853-7.29407,6.47943-19.96723,2.83057-32.93207-11.41211-.57788-36.95441,6.57727-44.15619,33.36206-7.26459,27.01849,1.61017,43.96332,9.42492,48.46362a40.9502,40.9502,0,0,1,.16425-5.6145C31.42433,161.87552,49.84071,164.27872,63.08631,155.69181Z"/><path class="cls-1" d="M144.82191,15.10794a94.932,94.932,0,0,0-15.96472-7.348c-4.07776.97327,22.48077,12.47046,41.10046,36.29553-6.64282-5.10748-15.42071-8.17553-15.87469-5.3601-.76685,4.75585,12.22766,7.40405,19.40851,16.69775,3.14447,4.06964,5.312,11.807,5.6134,15.67-4.76227-8.97381-15.68994-19.52429-16.00537-13.97748-.27375,4.8136,6.96631,10.71613,8.655,13.96155-2.17469-.33557-6.34125-1.89947-6.98816.78046-.09388,2.19678,2.44653,2.46271,7.01068,4.537,5.25622,2.38873,6.80725,4.75671,7.67566,7.25006,4.6571,13.69885,2.54095,22.72784,2.24054,23.78344,1.52362,3.46332,5.13629,11.85175,5.3844,14.73529a34.58041,34.58041,0,0,0,3.53216-8.82342A94.447,94.447,0,0,0,144.82191,15.10794Z"/><path class="cls-1" d="M162.617,96.50186c.17273-10.46984-9.11-25.107-11.51806-28.25891-5.1369,14.72852-9.08466,19.26087-22.44592,26.26587,5.06774,3.63056,21.52612,10.31421,27.2445,9.14826,3.84979,2.69714,4.71649,10.14611,4.64136,11.9035,2.89539,3.25708,5.163,7.73718,5.02545,8.89087-.13141,1.10187-5.913,6.275-12.5907,7.63574a.149.149,0,0,1-.11792-.26953c4.81031-3.1214,8.69849-7.78009,8.6955-8.45007-.00318-.70642-4.86347-6.80072-7.45911-6.303-1.22156.23425-5.19464,6.45483-5.69324,7.92859a20.96275,20.96275,0,0,1-9.72485,1.0794,27.87439,27.87439,0,0,1,8.08637,15.59064c1.38733,7.63208-1.44324,15.31476-2.54609,15.08911-1.1344-.23211,1.52259-4.93573-1.50659-14.37549-3.3844-10.54669-8.582-14.29132-12.87042-16.3562-8.24329.31024-20.53186,4.37226-29.9353,14.01471,5.20569,10.17212,24.17334,28.71479,50.97052,21.55933,27.031-7.2179,37.26831-23.3761,37.2583-32.394a40.96506,40.96506,0,0,1-4.94446,2.665C183.80323,120.83011,176.67628,103.67948,162.617,96.50186Z"/></g></svg>