<svg xmlns="http://www.w3.org/2000/svg" viewBox="0 0 372.16406 415.91255"><defs><style>.cls-1{fill:#04bfad;}.cls-2{fill:#0378a6;}</style></defs><g id="Layer_5" data-name="Layer 5"><path class="cls-1" d="M54.36443,127.25873c7.44041-2.8323.493-23.6187,7.86063-41.57562,3.2263-7.86335,12.50908-17.35917,17.78887-20.98249-8.90845,14.231-14.97886,38.5892-6.77941,34.45719C80.35013,95.572,82.81537,80.33241,86.065,75.23388c1.31665,3.38971,2.52122,10.64532,6.89138,9.35662,3.22166-1.68078,1.50315-5.5364.70043-13.78286-.92446-9.49672,1.183-13.67331,4.034-16.97647,15.75787-17.985,30.429-22.41715,32.188-22.85946,3.69786-5.04245,12.71838-17.14452,16.64037-19.88231a57.1468,57.1468,0,0,0-15.547,2.23566,156.27216,156.27216,0,0,0-100.03875,175.6c4.76243,5.032-.72828-42.47971,17.98506-88.81575C47.09752,113.83709,49.95978,128.93548,54.36443,127.25873Z"/><path class="cls-2" d="M130.04693,67.27783c-15.12755,8.40421-28.40616,33.7849-30.92748,39.83593,25.3247-4.81841,35.0735-2.9135,56.14,10.42119,1.00849-10.25314-3.02547-39.33158-9.41946-46.5525.67915-7.73858,10.624-15.1343,13.20135-16.479,2.26915-6.83539,6.80745-13.78285,8.57226-14.53927,1.68562-.72232,13.867,3.27764,21.3324,11.7107a.24623.24623,0,0,1-.28828.39138c-8.44234-4.3054-18.32278-6.02058-19.27922-5.46267-1.00849.58827-5.71464,12.58029-2.85742,15.88386,1.34469,1.55479,13.53079,2.1011,16.052,1.59685A34.644,34.644,0,0,1,192.154,77.11075c3.86591-13.9509,11.16722-20.66959,15.63179-24.45612,9.77683-8.29214,23.11153-10.58933,23.6998-8.82443.60511,1.81534-8.32231,1.89927-19.32965,14.035-12.29816,13.55872-13.36264,24.092-12.77437,31.93586,7.25562,11.54175,23.2236,25.77287,44.79436,31.26358,10.25708-15.85592,21.12249-58.325-11.26163-90.76525C200.24748-2.42383,168.66224-3.72383,155.76371,3.7422a67.69205,67.69205,0,0,1,7.9,4.8744C147.35949,16.85266,128.70224,41.22485,130.04693,67.27783Z"/><path class="cls-1" d="M201.5141,312.48235c12.79908-5.28695,24.44351-15.31486,20.789-18.2911-6.173-5.02742-20.70086,11.38247-39.93579,13.98036-8.42308,1.1376-21.288-2.15366-27.06581-4.91434,16.77867.59936,40.90858-6.32258,33.23042-11.35756-6.66311-4.36935-21.09364,1.11551-27.13389.85053,2.27722-2.83513,7.95847-7.50608,4.65743-10.64644-3.06652-1.94959-5.54629,1.46644-12.28656,6.28486-7.76218,5.549-12.43293,5.81207-16.71906,4.99473-23.45438-4.6543-34.62826-15.14378-35.89084-16.446-6.21585-.68117-21.20682-2.44214-25.53874-4.46981a57.14237,57.14237,0,0,0,9.70956,12.34627A156.27221,156.27221,0,0,0,287.42331,283.65C289.39994,277.00961,250.999,305.52057,201.5141,312.48235Z"/><path class="cls-2" d="M132.517,258.63873c14.842,8.89877,43.46157,7.70811,49.96258,6.866-16.83525-19.52261-20.05994-28.91786-19.045-53.8293-9.38375,4.25315-32.54945,22.286-35.60589,31.43374-7.04137,3.28117-18.41869-1.63357-20.87193-3.19321-7.05418,1.45261-15.34.99608-16.87742-.15423-1.46845-1.09857-4.095-13.64789-.52452-24.32963a.24621.24621,0,0,1,.48306.054c.49265,9.46394,3.94741,18.87835,4.9088,19.42759,1.01373.57929,13.75219-1.34116,15.18463-5.46731.67411-1.94193-4.94591-12.76852-6.64324-14.69986a34.64382,34.64382,0,0,1,6.49093-14.81041c-14.01486,3.62746-23.484.66362-28.99553-1.30948-12.0697-4.32093-20.72638-14.72053-19.49215-16.11243,1.26964-1.43183,5.806,6.25762,21.8195,9.72248,17.89136,3.871,27.54564-.47369,34.04453-4.90507,6.36767-12.05446,10.70817-32.99862,4.67791-54.42483-18.8601-.955-61.07231,10.86986-72.97426,55.13546-12.00574,44.65182,2.661,72.65551,15.576,80.09289a67.67466,67.67466,0,0,1,.27144-9.27875C80.19116,268.85818,110.6268,272.8298,132.517,258.63873Z"/><path class="cls-1" d="M267.59647,26.3043a156.88721,156.88721,0,0,0-26.38392-12.14364c-6.73907,1.60846,37.15261,20.60918,67.92424,59.98343-10.97819-8.44083-25.48488-13.51121-26.23514-8.85832-1.26732,7.85972,20.20791,12.23623,32.07526,27.59536,5.19668,6.72565,8.77884,19.51273,9.27693,25.89683-7.87031-14.83048-25.92981-32.26661-26.4511-23.09973-.4524,7.95515,11.51279,17.70989,14.30354,23.07341-3.594-.55458-10.4798-3.13915-11.54891,1.28981-.15514,3.63048,4.04324,4.07,11.58613,7.498,8.68664,3.94772,11.24993,7.86114,12.68509,11.98174,7.69652,22.63926,4.19929,37.56093,3.70281,39.30546,2.518,5.72362,8.48844,19.58666,8.89847,24.35212a57.14875,57.14875,0,0,0,5.8374-14.58194A156.08691,156.08691,0,0,0,267.59647,26.3043Z"/><path class="cls-2" d="M297.00537,160.8191c.28546-17.30289-15.05553-41.49281-19.03521-46.70179-8.48945,24.34092-15.01366,31.83126-37.095,43.408,8.37516,6,35.57492,17.04566,45.02534,15.11876,6.36232,4.45741,7.79466,16.76788,7.67049,19.6722,4.785,5.38278,8.53262,12.78677,8.30526,14.6934-.21717,1.821-9.772,10.37035-20.80788,12.61913a.2463.2463,0,0,1-.19488-.44544c7.9497-5.15855,14.37546-12.85768,14.37052-13.96492-.00525-1.16746-8.03755-11.23914-12.32721-10.41655-2.0188.38713-8.58487,10.66751-9.40887,13.1031a34.644,34.644,0,0,1-16.07168,1.78387c10.14895,10.32354,12.31683,20.006,13.36385,25.7657,2.29275,12.61307-2.38515,25.30977-4.20776,24.93686-1.87475-.38361,2.51628-8.157-2.48985-23.7575-5.59319-17.42988-14.183-23.6184-21.27017-27.0309-13.62318.51271-33.93176,7.22575-49.47226,23.16126,8.60313,16.81084,39.94982,47.45518,84.23589,35.62979,44.67251-11.92858,61.59108-38.63226,61.57454-53.53567a67.7,67.7,0,0,1-8.17141,4.40435C332.01854,201.02492,320.24026,172.6811,297.00537,160.8191Z"/><path class="cls-2" d="M29.60156,415.20943H0V363.811H29.60156v8.92969H10.89844v11.28516H28.30078v8.92968H10.89844v13.25391H29.60156Z"/><path class="cls-2" d="M51.92578,415.91255a12.76627,12.76627,0,0,1-10.88086-5.3789q-3.95508-5.37891-3.95508-14.90625,0-9.668,4.02539-15.06445a13.07418,13.07418,0,0,1,11.0918-5.39649q7.418,0,11.32031,5.76563h.35157a43.82684,43.82684,0,0,1-.8086-7.83985V360.5063H73.82812v54.70313H65.60156l-2.07422-5.09766h-.457Q59.41406,415.91256,51.92578,415.91255Zm3.76172-8.543q4.11329,0,6.0293-2.39063t2.09179-8.12109v-1.16016q0-6.32812-1.95117-9.07031t-6.3457-2.74219a6.29606,6.29606,0,0,0-5.57227,3.041q-1.98633,3.041-1.98633,8.84179T49.957,404.4692A6.54706,6.54706,0,0,0,55.6875,407.36959Z"/><path class="cls-2" d="M112.88672,415.20943l-1.44141-5.02734h-.5625a11.31281,11.31281,0,0,1-4.88672,4.23632,16.68379,16.68379,0,0,1-7.207,1.49414q-6.92577,0-10.4414-3.709T84.832,401.53365V375.90474H95.55469v22.957q0,4.25391,1.51172,6.38086a5.49763,5.49763,0,0,0,4.8164,2.127q4.5,0,6.50391-3.00586t2.0039-9.9668V375.90474h10.72266v39.30469Z"/><path class="cls-2" d="M128.88281,400.30318v-8.78906h18.87891v8.78906Z"/><path class="cls-2" d="M203.02734,389.4399q0,12.76171-6.32812,19.61719t-18.14063,6.85546q-11.8125,0-18.14062-6.85546t-6.32813-19.6875q0-12.832,6.34571-19.59961t18.19336-6.76758q11.84765,0,18.123,6.82031Q203.02735,376.64449,203.02734,389.4399Zm-37.51172,0q0,8.61474,3.26954,12.97265,3.26952,4.35938,9.77343,4.35938,13.043,0,13.043-17.332,0-17.3672-12.97265-17.36719-6.50391,0-9.8086,4.377T165.51562,389.4399Z"/><path class="cls-2" d="M228.79688,415.91255q-18.35157,0-18.35157-20.14453,0-10.01952,4.99219-15.31054t14.30859-5.291a27.291,27.291,0,0,1,12.23438,2.67188l-3.16406,8.29687q-2.53125-1.01953-4.71094-1.66992a15.1791,15.1791,0,0,0-4.35938-.65039q-8.36718,0-8.36718,11.88281,0,11.53125,8.36718,11.53125a19.07739,19.07739,0,0,0,5.73047-.82617,20.62591,20.62591,0,0,0,5.27344-2.584v9.17579a17.25762,17.25762,0,0,1-5.25586,2.28515A29.55627,29.55627,0,0,1,228.79688,415.91255Z"/><path class="cls-2" d="M267.64453,415.91255q-9.49218,0-14.83594-5.23828t-5.34375-14.83593q0-9.87891,4.93946-15.27539t13.6582-5.39649q8.332,0,12.97266,4.74609t4.64062,13.11329V398.229H258.32812a10.31928,10.31928,0,0,0,2.707,7.13672,9.52478,9.52478,0,0,0,7.10156,2.56641,29.48084,29.48084,0,0,0,6.71484-.73829,33.5987,33.5987,0,0,0,6.60938-2.35546v8.29687a25.17786,25.17786,0,0,1-6.01172,2.0918A37.904,37.904,0,0,1,267.64453,415.91255Zm-1.51172-33.11718a6.80116,6.80116,0,0,0-5.34375,2.16211,10.00668,10.00668,0,0,0-2.21484,6.13476h15.04687a8.93825,8.93825,0,0,0-2.07421-6.13476A7.023,7.023,0,0,0,266.13281,382.79537Z"/><path class="cls-2" d="M317.35547,415.20943l-2.07422-5.34375H315a15.83679,15.83679,0,0,1-5.57227,4.72852,18.00794,18.00794,0,0,1-7.4707,1.31835q-5.66016,0-8.91211-3.23437t-3.25195-9.21094q0-6.25635,4.37695-9.22851,4.377-2.9707,13.20117-3.28711l6.82032-.21094V389.018q0-5.97655-6.11719-5.97656A27.876,27.876,0,0,0,297,385.88912l-3.55078-7.24219a31.95306,31.95306,0,0,1,15.04687-3.55078q7.91016,0,12.12891,3.44531,4.21875,3.44678,4.21875,10.47656v26.19141Zm-3.16406-18.21094-4.14844.14063q-4.67579.14063-6.96094,1.6875a5.30123,5.30123,0,0,0-2.28515,4.71093q0,4.53516,5.20312,4.53516a8.24041,8.24041,0,0,0,5.959-2.14453,7.52958,7.52958,0,0,0,2.23243-5.69531Z"/><path class="cls-2" d="M372.16406,415.20943H361.44141v-22.957q0-4.25244-1.51172-6.38086a5.5,5.5,0,0,0-4.81641-2.12695q-4.5,0-6.5039,3.00586t-2.00391,9.96679v18.49219H335.88281V375.90474h8.19141l1.4414,5.02735h.59766a11.33143,11.33143,0,0,1,4.93945-4.30664,16.83451,16.83451,0,0,1,7.1543-1.459q6.85547,0,10.40625,3.709,3.55079,3.71045,3.55078,10.70507Z"/></g></svg>